<?xml version="1.0" encoding="utf-8"?>
<!-- Generator: Adobe Illustrator 27.1.1, SVG Export Plug-In . SVG Version: 6.00 Build 0)  -->
<svg version="1.1" id="Calque_1" xmlns="http://www.w3.org/2000/svg" xmlns:xlink="http://www.w3.org/1999/xlink" x="0px" y="0px"
	 viewBox="0 0 163.3 48.5" style="enable-background:new 0 0 163.3 48.5;" xml:space="preserve">
<style type="text/css">
	.st0{fill:#FFFFFF;}
	.st1{fill:none;stroke:#8D8D8D;}
	.st2{enable-background:new    ;}
	.st3{fill:#2C2D2F;}
	.st4{fill:#161615;}
</style>
<g id="Groupe_5946" transform="translate(-982 -827)">
	<g id="Rectangle_74" transform="translate(982 827)">
		<path class="st0" d="M7,0h149.3c3.9,0,7,3.1,7,7v34.5c0,3.9-3.1,7-7,7H7c-3.9,0-7-3.1-7-7V7C0,3.1,3.1,0,7,0z"/>
		<path class="st1" d="M7,0.5h149.3c3.6,0,6.5,2.9,6.5,6.5v34.5c0,3.6-2.9,6.5-6.5,6.5H7c-3.6,0-6.5-2.9-6.5-6.5V7
			C0.5,3.4,3.4,0.5,7,0.5z"/>
	</g>
	<g class="st2">
		<path class="st3" d="M997.1,860.3c-0.4,0-0.6-0.1-0.6-0.5c-0.1-1.1-0.2-2.2-0.2-3.3c0-5,1.2-10.3,5.6-13.2
			c0.2-0.1,0.4-0.2,0.5-0.2c0.2,0,0.3,0.1,0.5,0.2c4,2.9,5.5,7.5,5.5,13.1c0,1,0,2.1-0.2,3.3c0,0.4-0.3,0.5-0.6,0.5
			c-0.4,0-0.8,0.1-1.3,0.1c-0.5,0-1,0-1.4-0.1c-0.2,0-0.4-0.2-0.4-0.4c0-0.5,0.4-1.5,0.4-2.9c0-1.1-0.6-1.6-2-1.6
			c-1.7,0-3.3,0.7-3.3,2.1c0,0.9,0.3,1.8,0.3,2.3c0,0.2-0.1,0.4-0.3,0.4c-0.4,0-0.9,0.1-1.4,0.1
			C997.9,860.3,997.5,860.3,997.1,860.3z M1002.8,852.9c0.8,0,1.3,0,1.6,0c0.3,0,0.4-0.2,0.4-0.5c0-1.9-1-4.2-2-5.3
			c-0.1-0.1-0.2-0.2-0.3-0.2c-0.1,0-0.2,0.1-0.4,0.2c-1.5,1.4-2.3,4.4-2.3,6.2c0,0.2,0.1,0.3,0.2,0.3
			C1000.4,853.5,1001.4,852.9,1002.8,852.9z"/>
		<path class="st3" d="M1011.3,853.1c0-5.5,2.2-10,6.4-10c3.5,0,4.8,3,4.8,5.6c0,0.5-0.2,1-0.6,1.3c-0.4,0.5-1.7,1.3-2.2,1.3
			c-0.2,0-0.3-0.2-0.3-0.4s0-0.7,0-1c0-1.7-0.4-3.7-1.9-3.7c-1.7,0-2.6,2.4-2.6,6.1c0,3.2,0.9,4.7,3,4.7c1.8,0,3.1-1.3,3.8-3.1
			c0.1-0.2,0.2-0.2,0.3-0.2c0.5,0,0.8,0.8,0.8,2.1c0,2.5-1.6,4.9-5.4,4.9C1013.4,860.6,1011.3,858,1011.3,853.1z"/>
		<path class="st3" d="M1026.6,860.2c-0.3,0-0.4-0.2-0.5-0.6c-0.2-0.8-0.4-3.5-0.4-6.5c0-5,0.5-8.1,0.8-9c0.1-0.4,0.3-0.5,0.5-0.6
			c0.4,0,0.9-0.1,1.3-0.1c0.5,0,1,0,1.3,0.1c0.2,0,0.3,0.2,0.3,0.4c0,0.5-0.7,3.2-0.7,6.1c0,0.4,0.1,0.6,0.4,0.7
			c0.5,0.1,1.2-0.2,2.4-0.2c1.3,0,2,0.3,2.3,0.2c0.2-0.1,0.3-0.3,0.3-0.7c0-2.9-0.7-5.5-0.7-6.1c0-0.2,0.1-0.4,0.3-0.4
			c0.4,0,0.8-0.1,1.3-0.1c0.4,0,0.9,0,1.4,0c0.3,0,0.5,0.2,0.6,0.6c0.3,0.9,0.7,4,0.7,9c0,3-0.2,5.7-0.4,6.5
			c-0.1,0.5-0.2,0.6-0.6,0.6c-0.5,0-0.9,0.1-1.4,0.1c-0.4,0-0.9,0-1.4-0.1c-0.3,0-0.4-0.1-0.4-0.4c0-0.6,0.5-3.5,0.5-5
			c0-1.2-0.8-1.8-2.4-1.8c-2.3,0-3,0.7-3,2.1c0,1.8,0.6,4.1,0.6,4.6c0,0.3-0.1,0.4-0.4,0.4c-0.5,0-0.9,0-1.4,0
			S1027.1,860.2,1026.6,860.2z"/>
		<path class="st3" d="M1042.8,860.3c-0.5,0-0.7-0.1-0.8-0.6c0-1-0.1-2.1-0.1-3.3c0-3.9,0.3-8.5,1.1-12.3c0.1-0.4,0.3-0.6,0.6-0.6
			c0.7-0.1,2.3-0.1,3.9-0.1c1.8,0,3.7,0,4.8,0.1c0.3,0,0.4,0.2,0.4,0.3c0,0.3-0.4,1.8-0.7,2.6c-0.1,0.2-0.2,0.2-0.4,0.2
			c-0.1,0-0.3-0.1-0.6-0.2c-0.7-0.2-1.8-0.5-3.4-0.5c-0.8,0-1.2,0.1-1.5,0.4c-0.4,0.5-0.6,2-0.6,3.2c0,0.5,0.2,0.7,0.6,0.7
			c0.8,0,1.8-0.4,3.3-0.4c0.9,0,1.7,0.2,1.7,0.6c0,0.4-0.3,1.7-0.5,2.3c-0.1,0.3-0.2,0.3-0.4,0.3c-0.3,0-1.3-0.4-2.4-0.4
			c-1.8,0-2.4,0.6-2.4,2.2c0,2.2,0.3,2.5,1.6,2.5c2,0,3.7-0.4,4.6-0.8c0.2-0.1,0.3-0.2,0.4-0.2c0.1,0,0.2,0.1,0.3,0.3
			c0.2,0.6,0.5,2.4,0.5,3c0,0.3-0.2,0.5-0.6,0.5c-1.4,0.1-3,0.1-4.5,0.1C1045.8,860.3,1044,860.3,1042.8,860.3z"/>
		<path class="st3" d="M1058.7,860.2c-0.3,0-0.5-0.2-0.6-0.7c-0.1-1.1-0.2-2.4-0.2-3.7c0-5.2,0.5-7.6,0.5-8.8c0-0.3-0.1-0.5-0.4-0.5
			c-1.5,0-2.7,0.7-3.1,0.7c-0.2,0-0.3-0.1-0.3-0.4c0-0.5,0.2-2,0.4-2.6c0.1-0.3,0.2-0.5,0.6-0.6c0.7-0.2,2.5-0.6,4.8-0.6
			c2.3,0,4,0.3,5,0.7c0.4,0.2,0.5,0.5,0.5,0.9c0,0.7-0.2,1.7-0.3,2.3c-0.1,0.2-0.2,0.3-0.4,0.3c-0.5,0-1.3-0.8-2.7-0.8
			c-0.4,0-0.5,0.1-0.6,0.6c-0.2,1.2-0.3,2.7-0.3,4.3c0,4,0.7,7.6,0.7,8.2c0,0.3-0.1,0.4-0.4,0.5c-0.3,0.1-0.9,0.1-1.5,0.1
			C1059.8,860.3,1059.2,860.3,1058.7,860.2z"/>
		<path class="st3" d="M1068.8,860.3c-0.5,0-0.7-0.1-0.8-0.6c0-1-0.1-2.1-0.1-3.3c0-3.9,0.3-8.5,1.1-12.3c0.1-0.4,0.3-0.6,0.6-0.6
			c0.7-0.1,2.3-0.1,3.9-0.1c1.8,0,3.7,0,4.8,0.1c0.3,0,0.4,0.2,0.4,0.3c0,0.3-0.4,1.8-0.7,2.6c-0.1,0.2-0.2,0.2-0.4,0.2
			c-0.1,0-0.3-0.1-0.6-0.2c-0.7-0.2-1.8-0.5-3.4-0.5c-0.8,0-1.2,0.1-1.5,0.4c-0.4,0.5-0.6,2-0.6,3.2c0,0.5,0.2,0.7,0.6,0.7
			c0.8,0,1.8-0.4,3.3-0.4c0.9,0,1.7,0.2,1.7,0.6c0,0.4-0.3,1.7-0.5,2.3c-0.1,0.3-0.2,0.3-0.4,0.3c-0.3,0-1.3-0.4-2.4-0.4
			c-1.8,0-2.4,0.6-2.4,2.2c0,2.2,0.3,2.5,1.6,2.5c2,0,3.7-0.4,4.6-0.8c0.2-0.1,0.3-0.2,0.4-0.2s0.2,0.1,0.3,0.3
			c0.2,0.6,0.5,2.4,0.5,3c0,0.3-0.2,0.5-0.6,0.5c-1.4,0.1-3,0.1-4.5,0.1C1071.8,860.3,1070,860.3,1068.8,860.3z"/>
		<path class="st3" d="M1082.8,843.5c0.7-0.1,3.3-0.2,4.2-0.2c3.6,0,6.3,1.1,6.3,4.5c0,2.2-1.2,3.8-2.9,5c-0.1,0.1-0.2,0.2-0.2,0.3
			c0,0.1,0,0.2,0.2,0.2c2.4,1.5,3.6,5.1,3.6,6.4c0,0.3-0.2,0.5-0.5,0.5c-0.3,0-0.8,0-1.4,0c-0.5,0-0.9,0-1.3,0
			c-0.4,0-0.6-0.2-0.6-0.5c-0.4-3.3-1.9-5.1-3.5-5.1c-1.1,0-1.5,0.5-1.5,1.7c0,1.1,0.4,3.2,0.4,3.5c0,0.2-0.2,0.4-0.4,0.4
			c-0.4,0-0.8,0-1.4,0c-0.4,0-0.9,0-1.3,0c-0.3,0-0.6-0.1-0.6-0.5c-0.2-1.7-0.4-3.9-0.4-6.2c0-2.9,0.2-6.2,0.8-9.5
			C1082.2,843.7,1082.4,843.6,1082.8,843.5z M1085.3,852.5c1.9,0,4.3-2.1,4.3-4.5c0-1.6-1.1-2.2-2.6-2.2c-0.7,0-1.3,0.1-1.5,0.3
			c-0.5,0.5-0.8,2.9-0.8,5.3C1084.8,852.3,1085,852.5,1085.3,852.5z"/>
	</g>
	<g id="Groupe_614" transform="translate(1106.849 841.571)">
		<g>
			<g id="Groupe_614-2">
				<path id="Tracé_240" class="st4" d="M0,4.8C0.1,4.4,0.2,4,0.4,3.7c0.6-1.3,1.8-2.1,3.2-2c2.9,0,5.9,0,8.8,0
					c0.3,0,0.5,0.1,0.5,0.5c0,0.2,0,0.4,0,0.6c0,0.4-0.1,0.6-0.6,0.6H5.8c-0.7,0-1.4,0-2.1,0C2.6,3.2,1.7,4,1.6,5.1
					c0,0.1,0,0.1,0,0.2c0,3.5,0,6.9,0,10.4c0,0.9,0.6,1.8,1.5,2c0.2,0,0.4,0.1,0.6,0.1c3.4,0,6.8,0,10.2,0c0.8,0,1.6-0.4,1.9-1.2
					c0.1-0.3,0.2-0.7,0.2-1c0-1.2,0-2.5,0-3.7c0-0.5,0.1-0.6,0.6-0.6c0.2,0,0.5,0,0.7,0c0.2,0,0.3,0.2,0.3,0.3c0,0,0,0,0,0
					c0,1.5,0.1,3,0,4.5c-0.2,1.7-1.6,3.1-3.3,3.1c-0.2,0-0.4,0-0.7,0c-3.3,0-6.6,0-9.9,0c-0.6,0-1.2-0.1-1.7-0.3
					c-1.1-0.5-1.9-1.5-2-2.7c0,0,0-0.1,0-0.1V4.8"/>
				<path id="Tracé_241" class="st4" d="M17,3.6c-0.8-0.8-1.5-1.5-2.2-2.2c-0.3-0.3-0.4-0.8-0.1-1.1c0-0.1,0.1-0.1,0.2-0.1
					C15,0.1,15.2,0,15.4,0c2.1,0,4.2,0,6.2,0c0.5,0,0.9,0.4,0.9,0.8c0,0,0,0.1,0,0.1c0,2.1,0,4.2,0,6.2c0,0.4-0.2,0.7-0.5,0.8
					c-0.3,0.1-0.7,0-1-0.2c-0.7-0.7-1.3-1.3-2-2C19.1,5.7,19,5.6,19,5.6c-0.1,0.1-0.1,0.2-0.2,0.2c-2.6,2.6-5.2,5.2-7.9,7.9
					c-0.4,0.4-0.5,0.4-0.9,0c-0.4-0.4-0.8-0.8-1.2-1.2c-0.3-0.3-0.3-0.5,0-0.8c2.6-2.6,5.3-5.3,7.9-7.9C16.8,3.7,16.9,3.7,17,3.6"/>
			</g>
		</g>
	</g>
</g>
</svg>
