<svg id="Composant_19_3" data-name="Composant 19 – 3" xmlns="http://www.w3.org/2000/svg" width="69.181" height="48.5" viewBox="0 0 69.181 48.5">
  <g id="Groupe_5942" data-name="Groupe 5942" transform="translate(0)">
    <g id="Rectangle_74" data-name="Rectangle 74" transform="translate(0)" fill="#fff" stroke="#8d8d8d" stroke-width="1">
      <rect width="69.181" height="48.5" rx="7" stroke="none"/>
      <rect x="0.5" y="0.5" width="68.181" height="47.5" rx="6.5" fill="none"/>
    </g>
  </g>
  <g id="Groupe_5943" data-name="Groupe 5943" transform="translate(15.373 11.276)">
    <path id="Tracé_243" data-name="Tracé 243" d="M154.122,145.1q0-5.72,0-11.44c0-1.289.125-1.406,1.428-1.406,5.792,0,11.584.02,17.376-.02,1.039-.007,1.4.34,1.4,1.368q-.038,11.6,0,23.2c0,1.026-.355,1.382-1.391,1.376-5.792-.037-11.584-.016-17.376-.019-1.3,0-1.431-.124-1.433-1.406q-.008-5.828,0-11.656M172.8,133.782h-17.14v22.876H172.8Z" transform="translate(-145.459 -132.236)"/>
    <path id="Tracé_244" data-name="Tracé 244" d="M321.1,145.371a9.267,9.267,0,0,1-1.636.755c-.325.08-.724-.143-1.09-.23.13-.327.166-.806.405-.952a22.08,22.08,0,0,1,2.686-1.367c.616-.268,1.06-.053,1.1.693.01.179.008.36.008.54q0,10.145,0,20.291c0,1.406-.349,1.621-1.6,1.009a15.078,15.078,0,0,1-2.005-1.04c-.3-.208-.405-.694-.6-1.054a3.343,3.343,0,0,1,1.189-.186,7.87,7.87,0,0,1,1.538.712Z" transform="translate(-288.007 -141.983)"/>
    <path id="Tracé_245" data-name="Tracé 245" d="M112.276,145.4v19.2a11.122,11.122,0,0,1,1.725-.8c.289-.08.665.158,1,.252-.121.33-.146.817-.381.961a21.22,21.22,0,0,1-2.685,1.369c-.757.325-1.119-.005-1.123-.99-.013-2.878-.005-5.757-.005-8.635q0-5.883,0-11.765c0-1.613.289-1.78,1.771-1.044a17.8,17.8,0,0,1,2.008,1.036c.246.164.294.623.432.948-.362.1-.76.336-1.079.256a9.276,9.276,0,0,1-1.665-.79" transform="translate(-107.869 -142.036)"/>
    <path id="Tracé_246" data-name="Tracé 246" d="M90.063,155.117q0,4.959,0,9.919c0,.252.082.551-.026.744a4.392,4.392,0,0,1-.7.78,5.651,5.651,0,0,1-.7-.8c-.1-.158-.026-.421-.026-.636q0-10.027,0-20.053c0-.18-.068-.407.016-.53a10.537,10.537,0,0,1,.784-.932c.219.313.613.619.627.941.067,1.542.031,3.089.031,4.635q0,2.965,0,5.93" transform="translate(-88.579 -142.109)"/>
    <path id="Tracé_247" data-name="Tracé 247" d="M361.2,155.14q0-5.121,0-10.242c0-.536-.085-1.191.707-1.2.774,0,.744.637.744,1.181q0,10.3,0,20.593c0,.552-.019,1.228-.775,1.1-.278-.046-.642-.7-.647-1.089-.05-3.449-.029-6.9-.029-10.35" transform="translate(-325.164 -142.187)"/>
  </g>
</svg>
