<?xml version="1.0" encoding="UTF-8"?>
<svg id="Calque_2" data-name="Calque 2" xmlns="http://www.w3.org/2000/svg" xmlns:xlink="http://www.w3.org/1999/xlink" viewBox="0 0 460.81 460.81">
  <defs>
    <style>
      .cls-1 {
        fill: #fff;
      }

      .cls-2 {
        fill: url(#_ÂÁ_Ï_ÌÌ_È_ËÂÌÚ_7);
      }
    </style>
    <linearGradient id="_ÂÁ_Ï_ÌÌ_È_ËÂÌÚ_7" data-name="¡ÂÁ˚ÏˇÌÌ˚È „‡‰ËÂÌÚ 7" x1="-58.8" y1="42.01" x2="468.96" y2="385.8" gradientTransform="translate(230.4 -95.44) rotate(45)" gradientUnits="userSpaceOnUse">
      <stop offset=".14" stop-color="#fff"/>
      <stop offset=".34" stop-color="#ecedf5"/>
      <stop offset=".56" stop-color="#dee0ed"/>
      <stop offset=".75" stop-color="#d9dceb"/>
      <stop offset=".92" stop-color="#dbe0ef"/>
    </linearGradient>
  </defs>
  <g id="_ÎÓÈ_1" data-name="—ÎÓÈ_1">
    <g>
      <g>
        <circle class="cls-2" cx="230.41" cy="230.4" r="228.89" transform="translate(-95.44 230.41) rotate(-45)"/>
        <path class="cls-1" d="m230.41,460.81C103.36,460.81,0,357.45,0,230.4S103.36,0,230.41,0s230.41,103.36,230.41,230.4-103.36,230.41-230.41,230.41Zm0-457.77C105.04,3.04,3.04,105.04,3.04,230.4s101.99,227.36,227.36,227.36,227.36-101.99,227.36-227.36S355.78,3.04,230.41,3.04Z"/>
      </g>
      <g>
        <path d="m133.2,195.02c2.27-5.85,6.61-7.78,12.73-7.65,12.7.27,25.41.14,38.11,0,1.51-.02,3.29-.69,4.46-1.65,15.39-12.68,30.72-25.44,45.99-38.26,3.56-2.99,7.31-4.13,11.63-2.12,4.24,1.98,5.72,5.58,5.71,10.1-.03,51.07-.03,102.15-.05,153.22,0,6.96-4.91,11.66-11.34,10.61-1.88-.31-3.86-1.31-5.35-2.54-15.12-12.47-30.19-25.02-45.18-37.65-2.32-1.95-4.6-2.85-7.69-2.81-12.2.18-24.4-.11-36.6.15-6.06.13-10.25-1.94-12.44-7.67v-73.75Z"/>
        <path d="m313.47,143.5c33.94,24.6,49.56,57.9,45.81,99.56-2.78,30.95-17.62,55.74-42.15,74.74-4.38,3.39-8.48,3.23-11.1-.25-2.64-3.5-1.62-7.37,2.81-10.73,50.08-37.89,49.93-112.27-.44-150.05-5.3-3.97-4.7-11.03,1.18-13.09.06-.02.09-.12.14-.19,1.25,0,2.49,0,3.74,0Z"/>
        <path d="m328.64,234.16c-.62,23.4-10.66,44.46-30.64,60.68-2.31,1.87-4.82,2.55-7.61,1.33-2.4-1.05-3.79-2.96-4.06-5.58-.29-2.82,1-4.89,3.18-6.61,9.83-7.77,16.97-17.53,21.29-29.3,9.83-26.76,1.49-56.5-20.92-74.55-2.12-1.71-3.72-3.59-3.59-6.44.12-2.71,1.39-4.77,3.87-5.94,2.65-1.26,5.16-.85,7.45.93,6.25,4.86,11.7,10.51,16.26,16.99,9.77,13.86,14.57,29.3,14.76,48.49Z"/>
        <path d="m297.18,231.97c-.3,15.48-6.06,28.49-17.41,39.01-3.1,2.87-7.36,2.86-10.05.03-2.75-2.89-2.44-7.14.75-10.17,14.49-13.78,17.15-34.23,6.4-50.37-1.8-2.7-4.09-5.1-6.37-7.43-3.11-3.18-3.55-7.27-.82-10.18,2.73-2.91,6.97-2.91,10.21.11,11.32,10.54,17.03,23.58,17.29,39Z"/>
      </g>
    </g>
  </g>
</svg>