<?xml version="1.0" encoding="UTF-8"?>
<svg id="Calque_2" data-name="Calque 2" xmlns="http://www.w3.org/2000/svg" xmlns:xlink="http://www.w3.org/1999/xlink" viewBox="0 0 460.81 460.81">
  <defs>
    <style>
      .cls-1 {
        fill: #fff;
      }

      .cls-2 {
        stroke: #000;
        stroke-miterlimit: 10;
        stroke-width: 4px;
      }

      .cls-3 {
        fill: url(#_ÂÁ_Ï_ÌÌ_È_ËÂÌÚ_7);
      }
    </style>
    <linearGradient id="_ÂÁ_Ï_ÌÌ_È_ËÂÌÚ_7" data-name="¡ÂÁ˚ÏˇÌÌ˚È „‡‰ËÂÌÚ 7" x1="-58.8" y1="42.01" x2="468.96" y2="385.8" gradientTransform="translate(230.4 -95.44) rotate(45)" gradientUnits="userSpaceOnUse">
      <stop offset=".14" stop-color="#fff"/>
      <stop offset=".34" stop-color="#ecedf5"/>
      <stop offset=".56" stop-color="#dee0ed"/>
      <stop offset=".75" stop-color="#d9dceb"/>
      <stop offset=".92" stop-color="#dbe0ef"/>
    </linearGradient>
  </defs>
  <g id="_ÎÓÈ_1" data-name="—ÎÓÈ_1">
    <g>
      <g>
        <circle class="cls-3" cx="230.41" cy="230.4" r="228.89" transform="translate(-95.44 230.41) rotate(-45)"/>
        <path class="cls-1" d="m230.41,460.81C103.36,460.81,0,357.45,0,230.4S103.36,0,230.41,0s230.41,103.36,230.41,230.4-103.36,230.41-230.41,230.41Zm0-457.77C105.04,3.04,3.04,105.04,3.04,230.4s101.99,227.36,227.36,227.36,227.36-101.99,227.36-227.36S355.78,3.04,230.41,3.04Z"/>
      </g>
      <g>
        <path class="cls-2" d="m230.41,258.57c-7.22,0-14.44-2.74-19.93-8.24-10.98-10.99-10.98-28.87,0-39.85,10.99-10.99,28.87-10.99,39.86,0,5.32,5.32,8.25,12.4,8.25,19.92s-2.93,14.6-8.25,19.93c-5.49,5.5-12.71,8.24-19.93,8.24Zm0-48.61c-5.24,0-10.48,1.99-14.46,5.98-7.97,7.97-7.97,20.95,0,28.92,7.98,7.98,20.96,7.98,28.93,0,3.86-3.86,5.99-9,5.99-14.46s-2.13-10.6-5.99-14.46c-3.99-3.99-9.23-5.98-14.46-5.98Z"/>
        <g>
          <g>
            <path class="cls-2" d="m321.38,135.57c.99,0,1.98.38,2.73,1.13,1.51,1.51,1.51,3.96,0,5.47l-57.81,57.81c-1.51,1.51-3.96,1.51-5.47,0s-1.51-3.96,0-5.47l57.81-57.81c.75-.75,1.75-1.13,2.73-1.13Z"/>
            <path class="cls-2" d="m263.57,156.67c2.14,0,3.86,1.73,3.86,3.86v32.85h32.85c2.14,0,3.86,1.73,3.86,3.86s-1.73,3.86-3.86,3.86h-36.72c-2.14,0-3.86-1.73-3.86-3.86v-36.71c0-2.14,1.73-3.86,3.86-3.86Z"/>
          </g>
          <g>
            <path class="cls-2" d="m197.25,259.7c.99,0,1.98.38,2.73,1.13,1.51,1.51,1.51,3.96,0,5.47l-57.82,57.81c-1.51,1.51-3.96,1.51-5.47,0s-1.51-3.96,0-5.47l57.82-57.81c.75-.75,1.75-1.13,2.73-1.13Z"/>
            <path class="cls-2" d="m160.54,259.7h36.72c2.14,0,3.86,1.73,3.86,3.86v36.72c0,2.14-1.73,3.86-3.86,3.86s-3.86-1.73-3.86-3.86v-32.85h-32.85c-2.14,0-3.86-1.73-3.86-3.86s1.73-3.86,3.86-3.86Z"/>
          </g>
        </g>
        <g>
          <g>
            <path class="cls-2" d="m263.57,259.7c.99,0,1.98.38,2.73,1.13l57.81,57.81c1.51,1.51,1.51,3.96,0,5.47-1.51,1.51-3.96,1.51-5.47,0l-57.81-57.81c-1.51-1.51-1.51-3.96,0-5.47.75-.75,1.75-1.13,2.73-1.13Z"/>
            <path class="cls-2" d="m263.57,259.7h36.72c2.14,0,3.86,1.73,3.86,3.86s-1.73,3.86-3.86,3.86h-32.85v32.85c0,2.14-1.73,3.86-3.86,3.86s-3.86-1.73-3.86-3.86v-36.72c0-2.14,1.73-3.86,3.86-3.86Z"/>
          </g>
          <g>
            <path class="cls-2" d="m139.43,135.57c.99,0,1.98.38,2.73,1.13l57.82,57.81c1.51,1.51,1.51,3.96,0,5.47-1.51,1.51-3.96,1.51-5.47,0l-57.82-57.81c-1.51-1.51-1.51-3.96,0-5.47.75-.75,1.75-1.13,2.73-1.13Z"/>
            <path class="cls-2" d="m197.25,156.67c2.14,0,3.86,1.73,3.86,3.86v36.71c0,2.14-1.73,3.86-3.86,3.86h-36.72c-2.14,0-3.86-1.73-3.86-3.86s1.73-3.86,3.86-3.86h32.85v-32.85c0-2.14,1.73-3.86,3.86-3.86Z"/>
          </g>
        </g>
      </g>
    </g>
  </g>
</svg>