<?xml version="1.0" encoding="UTF-8"?>
<svg id="Calque_2" data-name="Calque 2" xmlns="http://www.w3.org/2000/svg" xmlns:xlink="http://www.w3.org/1999/xlink" viewBox="0 0 460.81 460.81">
  <defs>
    <style>
      .cls-1 {
        fill: #fff;
      }

      .cls-2 {
        fill: url(#_ÂÁ_Ï_ÌÌ_È_ËÂÌÚ_7);
      }
    </style>
    <linearGradient id="_ÂÁ_Ï_ÌÌ_È_ËÂÌÚ_7" data-name="¡ÂÁ˚ÏˇÌÌ˚È „‡‰ËÂÌÚ 7" x1="-58.8" y1="42.01" x2="468.96" y2="385.8" gradientTransform="translate(230.4 -95.44) rotate(45)" gradientUnits="userSpaceOnUse">
      <stop offset=".14" stop-color="#fff"/>
      <stop offset=".34" stop-color="#ecedf5"/>
      <stop offset=".56" stop-color="#dee0ed"/>
      <stop offset=".75" stop-color="#d9dceb"/>
      <stop offset=".92" stop-color="#dbe0ef"/>
    </linearGradient>
  </defs>
  <g id="_ÎÓÈ_1" data-name="—ÎÓÈ_1">
    <g>
      <g>
        <circle class="cls-2" cx="230.41" cy="230.4" r="228.89" transform="translate(-95.44 230.41) rotate(-45)"/>
        <path class="cls-1" d="m230.41,460.81C103.36,460.81,0,357.45,0,230.4S103.36,0,230.41,0s230.41,103.36,230.41,230.4-103.36,230.41-230.41,230.41Zm0-457.77C105.04,3.04,3.04,105.04,3.04,230.4s101.99,227.36,227.36,227.36,227.36-101.99,227.36-227.36S355.78,3.04,230.41,3.04Z"/>
      </g>
      <path d="m131.98,232.27c-.01.14-.03.28-.03.43h.06c.28,2.91,1.94,5.7,5.03,7.14l148.11,69.17c9.92,4.63,20.18-5.71,15.47-15.6l-13.95-29.25c-9.75-20.44-9.75-44.19,0-64.64l13.95-29.25c.29-.62.53-1.24.71-1.85.09-.31.17-.62.23-.92.19-.92.26-1.84.23-2.73-.08-2.08-.74-4.05-1.82-5.73-.31-.48-.65-.94-1.02-1.37-.19-.22-.38-.43-.58-.63-.4-.41-.83-.78-1.29-1.13-.36-.28-.75-.53-1.14-.76-.22-.13-.44-.25-.67-.37-.9-.45-1.85-.8-2.85-1.01-.57-.12-1.16-.19-1.75-.22-.3-.01-.6-.02-.9,0-1.51.05-3.07.41-4.62,1.13l-76.58,35.76-71.53,33.41c-3.39,1.58-5.09,4.79-5.09,7.99h0c0,.14.02.28.03.43Z"/>
    </g>
  </g>
</svg>