<?xml version="1.0" encoding="UTF-8"?>
<svg id="Calque_2" data-name="Calque 2" xmlns="http://www.w3.org/2000/svg" xmlns:xlink="http://www.w3.org/1999/xlink" viewBox="0 0 460.81 460.81">
  <defs>
    <style>
      .cls-1 {
        fill: #fff;
      }

      .cls-2 {
        fill: none;
        stroke: #000;
        stroke-linecap: round;
        stroke-miterlimit: 10;
        stroke-width: 20px;
      }

      .cls-3 {
        fill: url(#_ÂÁ_Ï_ÌÌ_È_ËÂÌÚ_7);
      }
    </style>
    <linearGradient id="_ÂÁ_Ï_ÌÌ_È_ËÂÌÚ_7" data-name="¡ÂÁ˚ÏˇÌÌ˚È „‡‰ËÂÌÚ 7" x1="-58.8" y1="42.01" x2="468.96" y2="385.8" gradientTransform="translate(230.4 -95.44) rotate(45)" gradientUnits="userSpaceOnUse">
      <stop offset=".14" stop-color="#fff"/>
      <stop offset=".34" stop-color="#ecedf5"/>
      <stop offset=".56" stop-color="#dee0ed"/>
      <stop offset=".75" stop-color="#d9dceb"/>
      <stop offset=".92" stop-color="#dbe0ef"/>
    </linearGradient>
  </defs>
  <g id="_ÎÓÈ_1" data-name="—ÎÓÈ_1">
    <g>
      <g>
        <circle class="cls-3" cx="230.41" cy="230.4" r="228.89" transform="translate(-95.44 230.41) rotate(-45)"/>
        <path class="cls-1" d="m230.41,460.81C103.36,460.81,0,357.45,0,230.4S103.36,0,230.41,0s230.41,103.36,230.41,230.4-103.36,230.41-230.41,230.41Zm0-457.77C105.04,3.04,3.04,105.04,3.04,230.4s101.99,227.36,227.36,227.36,227.36-101.99,227.36-227.36S355.78,3.04,230.41,3.04Z"/>
      </g>
      <g>
        <line class="cls-2" x1="316.82" y1="176" x2="143.99" y2="176"/>
        <line class="cls-2" x1="316.82" y1="228.57" x2="143.99" y2="228.57"/>
        <line class="cls-2" x1="316.82" y1="284.81" x2="143.99" y2="284.81"/>
      </g>
    </g>
  </g>
</svg>