<?xml version="1.0" encoding="UTF-8"?>
<svg id="Calque_2" data-name="Calque 2" xmlns="http://www.w3.org/2000/svg" xmlns:xlink="http://www.w3.org/1999/xlink" viewBox="0 0 460.81 460.81">
  <defs>
    <style>
      .cls-1 {
        fill: #fff;
      }

      .cls-2 {
        fill: url(#_ÂÁ_Ï_ÌÌ_È_ËÂÌÚ_7);
      }
    </style>
    <linearGradient id="_ÂÁ_Ï_ÌÌ_È_ËÂÌÚ_7" data-name="¡ÂÁ˚ÏˇÌÌ˚È „‡‰ËÂÌÚ 7" x1="-58.8" y1="42.01" x2="468.96" y2="385.8" gradientTransform="translate(230.4 -95.44) rotate(45)" gradientUnits="userSpaceOnUse">
      <stop offset=".14" stop-color="#fff"/>
      <stop offset=".34" stop-color="#ecedf5"/>
      <stop offset=".56" stop-color="#dee0ed"/>
      <stop offset=".75" stop-color="#d9dceb"/>
      <stop offset=".92" stop-color="#dbe0ef"/>
    </linearGradient>
  </defs>
  <g id="_ÎÓÈ_1" data-name="—ÎÓÈ_1">
    <g>
      <g>
        <circle class="cls-2" cx="230.41" cy="230.4" r="228.89" transform="translate(-95.44 230.41) rotate(-45)"/>
        <path class="cls-1" d="m230.41,460.81C103.36,460.81,0,357.45,0,230.4S103.36,0,230.41,0s230.41,103.36,230.41,230.4-103.36,230.41-230.41,230.41Zm0-457.77C105.04,3.04,3.04,105.04,3.04,230.4s101.99,227.36,227.36,227.36,227.36-101.99,227.36-227.36S355.78,3.04,230.41,3.04Z"/>
      </g>
      <g>
        <path d="m154.13,229.59c0-28.85-.03-57.71.01-86.56.01-9.75.95-10.64,10.81-10.64,43.83-.02,87.65.15,131.48-.15,7.86-.05,10.58,2.57,10.56,10.35-.19,58.52-.19,117.05,0,175.57.03,7.77-2.69,10.46-10.53,10.41-43.82-.28-87.65-.12-131.48-.14-9.85,0-10.83-.94-10.84-10.64-.04-29.4-.01-58.8-.01-88.2Zm141.29,87.43v-173.09h-129.68v173.09h129.68Z"/>
        <path d="m339.01,157.87c-4.67,2.25-8.34,4.73-12.38,5.72-2.46.6-5.48-1.08-8.25-1.74.98-2.47,1.25-6.1,3.07-7.2,6.48-3.94,13.36-7.32,20.33-10.34,4.66-2.02,8.02-.4,8.35,5.24.08,1.36.06,2.72.06,4.08,0,51.18.02,102.35-.01,153.53,0,10.64-2.64,12.26-12.09,7.64-5.13-2.51-10.53-4.64-15.17-7.87-2.26-1.57-3.07-5.25-4.53-7.97,3.01-.55,6.23-2.02,8.99-1.41,3.78.83,7.22,3.24,11.64,5.39v-145.06Z"/>
        <path d="m121.92,157.68v145.29c4.88-2.37,8.78-4.89,13.05-6.07,2.18-.6,5.03,1.2,7.58,1.91-.92,2.49-1.1,6.18-2.88,7.27-6.47,3.96-13.34,7.36-20.32,10.36-5.72,2.46-8.46-.04-8.5-7.49-.1-21.78-.04-43.56-.04-65.33,0-29.67-.01-59.35,0-89.02,0-12.21,2.18-13.47,13.4-7.9,5.11,2.54,10.48,4.69,15.19,7.84,1.86,1.24,2.23,4.71,3.27,7.17-2.74.73-5.75,2.54-8.17,1.94-4.04-1-7.7-3.55-12.6-5.98Z"/>
        <path d="m99.81,230.66c0,25.02,0,50.03,0,75.05,0,1.9.62,4.17-.19,5.63-1.25,2.25-3.5,3.96-5.32,5.9-1.81-1.98-3.94-3.77-5.32-6.02-.73-1.2-.2-3.18-.2-4.82,0-50.58,0-101.15,0-151.73,0-1.36-.51-3.08.12-4.01,1.72-2.53,3.92-4.72,5.93-7.05,1.66,2.37,4.64,4.68,4.75,7.12.51,11.67.23,23.37.23,35.07,0,14.96,0,29.91,0,44.87Z"/>
        <path d="m361.23,230.24c0-25.83,0-51.67,0-77.5,0-4.06-.65-9.01,5.35-9.04,5.86-.03,5.63,4.82,5.63,8.94.02,51.94.02,103.87,0,155.81,0,4.18-.14,9.29-5.87,8.34-2.11-.35-4.86-5.33-4.9-8.24-.38-26.1-.22-52.21-.22-78.31Z"/>
      </g>
    </g>
  </g>
</svg>