<?xml version="1.0" encoding="UTF-8"?>
<svg id="Calque_2" data-name="Calque 2" xmlns="http://www.w3.org/2000/svg" xmlns:xlink="http://www.w3.org/1999/xlink" viewBox="0 0 460.81 460.81">
  <defs>
    <style>
      .cls-1 {
        fill: #fff;
      }

      .cls-2 {
        fill: url(#_ÂÁ_Ï_ÌÌ_È_ËÂÌÚ_7);
      }
    </style>
    <linearGradient id="_ÂÁ_Ï_ÌÌ_È_ËÂÌÚ_7" data-name="¡ÂÁ˚ÏˇÌÌ˚È „‡‰ËÂÌÚ 7" x1="-58.8" y1="42.01" x2="468.96" y2="385.8" gradientTransform="translate(230.4 -95.44) rotate(45)" gradientUnits="userSpaceOnUse">
      <stop offset=".14" stop-color="#fff"/>
      <stop offset=".34" stop-color="#ecedf5"/>
      <stop offset=".56" stop-color="#dee0ed"/>
      <stop offset=".75" stop-color="#d9dceb"/>
      <stop offset=".92" stop-color="#dbe0ef"/>
    </linearGradient>
  </defs>
  <g id="_ÎÓÈ_1" data-name="—ÎÓÈ_1">
    <g>
      <g>
        <circle class="cls-2" cx="230.41" cy="230.4" r="228.89" transform="translate(-95.44 230.41) rotate(-45)"/>
        <path class="cls-1" d="m230.41,460.81C103.36,460.81,0,357.45,0,230.4S103.36,0,230.41,0s230.41,103.36,230.41,230.4-103.36,230.41-230.41,230.41Zm0-457.77C105.04,3.04,3.04,105.04,3.04,230.4s101.99,227.36,227.36,227.36,227.36-101.99,227.36-227.36S355.78,3.04,230.41,3.04Z"/>
      </g>
      <g>
        <path d="m211.63,356.02c-17.07.02-27.2-7.53-29.29-19.35-1.11-6.27.1-12.41,1.83-18.42,6-20.9,12.15-41.76,18.14-62.67,4.42-15.41,8.71-30.87,12.95-46.33.57-2.09,1.8-4.81-.6-6.3-2.56-1.59-4.32.98-6.13,2.37-6.07,4.67-10.84,10.51-14.9,16.97-.88,1.4-1.8,2.8-2.93,4-1.6,1.69-3.61,2.56-5.9,1.44-2.35-1.16-3.03-3.29-2.73-5.75.1-.8.29-1.67.69-2.36,7.87-13.52,16.72-26.26,29.59-35.59,9.39-6.81,19.75-10.49,31.52-8.53,13.74,2.29,22.39,13.69,19.93,27.39-1.73,9.65-4.63,19.1-7.31,28.56-8.2,28.86-16.55,57.67-24.81,86.51-.54,1.89-1.06,3.84-1.13,5.78-.06,1.49.61,3,.96,4.5,1.5-.41,3.4-.39,4.44-1.32,4.08-3.65,8.05-7.45,11.75-11.48,2.15-2.34,3.69-5.24,5.53-7.87.65-.93,1.28-1.9,2.07-2.71,1.8-1.84,3.9-2.81,6.42-1.41,2.13,1.19,3.11,4.22,2.06,6.86-.68,1.72-1.68,3.32-2.65,4.9-6.91,11.29-14.68,21.87-25.17,30.16-8.18,6.46-17.28,10.59-24.31,10.65Z"/>
        <path d="m280.5,133.33c0,15.06-12.24,27.33-27.24,27.3-15.07-.03-27.29-12.19-27.37-27.23-.07-15.15,12.29-27.51,27.46-27.44,15.07.07,27.15,12.25,27.15,27.37Z"/>
      </g>
    </g>
  </g>
</svg>