<?xml version="1.0" encoding="UTF-8"?>
<svg id="Calque_2" data-name="Calque 2" xmlns="http://www.w3.org/2000/svg" xmlns:xlink="http://www.w3.org/1999/xlink" viewBox="0 0 460.81 460.81">
  <defs>
    <style>
      .cls-1 {
        stroke: #000;
        stroke-miterlimit: 10;
        stroke-width: 3px;
      }

      .cls-2 {
        fill: #fff;
      }

      .cls-3 {
        fill: url(#_ÂÁ_Ï_ÌÌ_È_ËÂÌÚ_7);
      }
    </style>
    <linearGradient id="_ÂÁ_Ï_ÌÌ_È_ËÂÌÚ_7" data-name="¡ÂÁ˚ÏˇÌÌ˚È „‡‰ËÂÌÚ 7" x1="-58.8" y1="42.01" x2="468.96" y2="385.8" gradientTransform="translate(230.4 -95.44) rotate(45)" gradientUnits="userSpaceOnUse">
      <stop offset=".14" stop-color="#fff"/>
      <stop offset=".34" stop-color="#ecedf5"/>
      <stop offset=".56" stop-color="#dee0ed"/>
      <stop offset=".75" stop-color="#d9dceb"/>
      <stop offset=".92" stop-color="#dbe0ef"/>
    </linearGradient>
  </defs>
  <g id="_ÎÓÈ_1" data-name="—ÎÓÈ_1">
    <g>
      <g>
        <circle class="cls-3" cx="230.41" cy="230.4" r="228.89" transform="translate(-95.44 230.41) rotate(-45)"/>
        <path class="cls-2" d="m230.41,460.81C103.36,460.81,0,357.45,0,230.4S103.36,0,230.41,0s230.41,103.36,230.41,230.4-103.36,230.41-230.41,230.41Zm0-457.77C105.04,3.04,3.04,105.04,3.04,230.4s101.99,227.36,227.36,227.36,227.36-101.99,227.36-227.36S355.78,3.04,230.41,3.04Z"/>
      </g>
      <g>
        <path class="cls-1" d="m198.9,281.17c2.31,4.77,3,9.7-.54,13.5-3.09,3.32-7.39,5.5-11.52,8.45,1.95,4.19,4.11,8.85,6.29,13.49,3.53,7.52,7.11,15.02,10.61,22.55,3.87,8.33,1.26,16.96-6.36,21.26-7.36,4.15-16.22,1.91-21.16-5.65-10.19-15.6-20.28-31.28-30.29-46.99-1.26-1.98-2.24-2.67-4.75-1.99-27.83,7.43-53.47-13.83-50.81-42.46,1.37-14.73,9.27-25.58,22.58-32.12,12.39-6.09,25.08-11.58,37.39-17.83,18.33-9.31,34.44-21.55,46.94-38.1,7.06-9.34,12.43-19.53,13.83-31.37.37-3.09.39-6.29.03-9.38-.92-7.97,2.63-14.18,9.7-16.36,6.75-2.08,13.44,1.4,16.87,8.72,8.25,17.58,16.52,35.14,24.79,52.71.66,1.4,1.37,2.77,2.02,4.08,12.59-2.49,20.33.45,24.29,9.08,4.06,8.84,1.45,16.42-8.59,24.48,3.72,7.93,7.47,15.94,11.24,23.93,5.17,10.97,10.34,21.93,15.53,32.88,3.44,7.26,1.87,14.48-4.08,18.57-5.87,4.04-12.91,3.02-18.49-2.75-9.25-9.56-21.09-13.37-33.8-14.95-17.12-2.13-33.8.55-50.19,5.47-.42.12-.79.39-1.52.76Zm-48.73-56.12c.38.89.86,2.12,1.42,3.31,7.46,15.83,15.01,31.62,22.32,47.52,1.33,2.88,2.36,3.43,5.39,2.13,23.44-10.09,47.74-15.64,73.43-12.51,11.98,1.46,23.2,5.16,32.92,12.6,2.13,1.63,4.06,3.53,5.97,5.43,1.72,1.71,3.59,2.4,5.73,1.06,2.23-1.4,2.2-3.45,1.17-5.62-.43-.91-.85-1.83-1.28-2.74-17.57-37.36-35.14-74.71-52.71-112.07-5.25-11.17-10.48-22.34-15.75-33.49-1.58-3.34-4.56-4.48-6.59-2.31-.97,1.04-1.46,3.03-1.33,4.52,1.06,11.75-1.43,22.75-6.63,33.23-9.13,18.41-23.21,32.38-39.82,43.93-7.71,5.36-15.96,9.93-24.25,15.03Zm-9.14,3.58c-8.46,4-16.54,7.62-24.44,11.59-15.05,7.56-20.99,25.29-13.75,40.47,7.05,14.77,24.81,21.13,40.04,14.23,7.25-3.28,14.42-6.75,21.62-10.15.76-.36,1.46-.87,2.3-1.38-8.61-18.29-17.1-36.33-25.78-54.76Zm12.25,72.32c.49.97.77,1.69,1.18,2.33,9.79,15.19,19.58,30.39,29.42,45.56,2.46,3.79,5.92,4.87,9.09,3,2.96-1.75,3.62-5.14,1.73-9.18-6.81-14.53-13.64-29.06-20.48-43.58-.99-2.09-2.07-4.14-3.22-6.44-6.06,2.85-11.8,5.54-17.71,8.31Zm122.52-93.09c4.79-2.52,6.24-7.06,4.06-11.3-2.05-4-6.71-5.52-10.93-3.34,2.26,4.81,4.52,9.64,6.86,14.65Zm-93.02,85.5c1.78-.83,3.39-1.58,5.01-2.35,3.81-1.81,4.05-2.96,1.32-6.62-1.62.64-3.28,1.27-4.92,1.96-4.9,2.07-4.95,2.29-1.4,7Z"/>
        <path class="cls-1" d="m301.45,98.32c3.44-.05,5.65,3.32,4.38,6.92-2.86,8.14-5.81,16.25-8.74,24.37-3.12,8.65-6.22,17.31-9.38,25.95-1.34,3.66-3.7,5.06-6.54,4.04-2.87-1.03-3.83-3.63-2.53-7.26,5.94-16.57,11.94-33.12,17.87-49.69.87-2.43,2.17-4.16,4.94-4.32Z"/>
        <path class="cls-1" d="m311.3,186.96c-1.15-1.17-3.04-2.33-3.75-4-.99-2.31.29-4.44,2.55-5.56,4.21-2.09,8.51-4.02,12.77-6.03,11.97-5.63,23.91-11.33,35.94-16.84,1.5-.69,3.68-1.1,5.06-.5,1.35.58,2.95,2.69,2.84,3.99-.14,1.67-1.51,3.97-2.99,4.69-16.24,7.87-32.6,15.5-48.94,23.16-.8.37-1.69.54-3.46,1.09Z"/>
        <path class="cls-1" d="m370.64,239.65c.03,4.12-3.23,6.1-7.2,4.69-9.61-3.42-19.19-6.89-28.78-10.35-7.06-2.55-14.13-5.09-21.18-7.67-3.54-1.29-5-3.71-4.06-6.59.89-2.72,3.75-3.74,7.31-2.46,16.56,5.93,33.11,11.91,49.68,17.83,2.44.87,4.12,2.21,4.23,4.55Z"/>
      </g>
    </g>
  </g>
</svg>