<?xml version="1.0" encoding="UTF-8"?>
<svg id="Calque_2" data-name="Calque 2" xmlns="http://www.w3.org/2000/svg" xmlns:xlink="http://www.w3.org/1999/xlink" viewBox="0 0 460.81 460.81">
  <defs>
    <style>
      .cls-1 {
        fill: #fff;
      }

      .cls-2 {
        fill: url(#_ÂÁ_Ï_ÌÌ_È_ËÂÌÚ_7);
      }
    </style>
    <linearGradient id="_ÂÁ_Ï_ÌÌ_È_ËÂÌÚ_7" data-name="¡ÂÁ˚ÏˇÌÌ˚È „‡‰ËÂÌÚ 7" x1="-58.8" y1="42.01" x2="468.96" y2="385.8" gradientTransform="translate(230.4 -95.44) rotate(45)" gradientUnits="userSpaceOnUse">
      <stop offset=".14" stop-color="#fff"/>
      <stop offset=".34" stop-color="#ecedf5"/>
      <stop offset=".56" stop-color="#dee0ed"/>
      <stop offset=".75" stop-color="#d9dceb"/>
      <stop offset=".92" stop-color="#dbe0ef"/>
    </linearGradient>
  </defs>
  <g id="_ÎÓÈ_1" data-name="—ÎÓÈ_1">
    <g>
      <g>
        <circle class="cls-2" cx="230.41" cy="230.4" r="228.89" transform="translate(-95.44 230.41) rotate(-45)"/>
        <path class="cls-1" d="m230.41,460.81C103.36,460.81,0,357.45,0,230.4S103.36,0,230.41,0s230.41,103.36,230.41,230.4-103.36,230.41-230.41,230.41Zm0-457.77C105.04,3.04,3.04,105.04,3.04,230.4s101.99,227.36,227.36,227.36,227.36-101.99,227.36-227.36S355.78,3.04,230.41,3.04Z"/>
      </g>
      <g>
        <path d="m242.69,319.48c-2.51-1.8-5.13-3.46-7.5-5.42-14.46-11.96-28.84-24.03-43.33-35.96-1.17-.96-2.96-1.63-4.47-1.64-13.13-.13-26.26-.07-39.39-.07-7.67,0-11.46-3.84-11.46-11.49,0-21.88-.01-43.77-.01-65.65,0-8.2,3.62-11.78,11.9-11.79,13.05,0,26.09.04,39.14-.07,1.36-.01,2.98-.6,4.04-1.47,15.58-12.86,31.07-25.81,46.6-38.73,4.22-3.51,8.75-3.85,12.74-1.04,3.19,2.25,4.23,5.46,4.23,9.22-.03,21.38-.01,42.76-.01,64.13,0,28.95-.11,57.9.08,86.86.04,6.12-1.63,10.66-7.51,13.11-1.68,0-3.37,0-5.05,0Z"/>
        <path d="m349.23,263.91c-.81,1.05-1.49,2.24-2.44,3.13-3.04,2.83-7.34,2.53-10.6-.71-7.28-7.23-14.53-14.5-21.77-21.77-.65-.65-1.16-1.43-1.86-2.31-1.02.95-1.69,1.54-2.32,2.17-7.38,7.37-14.75,14.75-22.14,22.11-2.2,2.19-4.83,3.03-7.85,2-2.9-.98-4.57-3.08-4.99-6.09-.38-2.72.75-4.87,2.66-6.76,7.11-7.05,14.16-14.16,21.28-21.19.82-.81,1.95-1.33,3.06-2.07-5.94-5.94-11.17-11.17-16.4-16.4-2.68-2.68-5.37-5.34-8.03-8.03-3.4-3.45-3.57-7.91-.45-10.99,3.11-3.07,7.52-2.88,10.99.57,7.28,7.23,14.54,14.49,21.76,21.78.63.64.96,1.59,1.76,2.97,3-3.23,5.17-5.68,7.46-8.01,5.08-5.15,10.22-10.25,15.33-15.36,5.83-5.82,9.6-5.61,14.55.81v4.55c-1.27,1.64-2.39,3.44-3.84,4.91-6.83,6.94-13.74,13.79-20.62,20.67-.63.63-1.23,1.3-1.92,2.03.64.68,1.13,1.24,1.66,1.77,6.88,6.88,13.8,13.74,20.63,20.67,1.51,1.53,2.74,3.34,4.09,5.02v4.55Z"/>
      </g>
    </g>
  </g>
</svg>