<?xml version="1.0" encoding="UTF-8"?>
<svg id="Calque_2" data-name="Calque 2" xmlns="http://www.w3.org/2000/svg" xmlns:xlink="http://www.w3.org/1999/xlink" viewBox="0 0 1066.76 390.12">
  <defs>
    <style>
      .cls-1 {
        fill: url(#_ÂÁ_Ï_ÌÌ_È_ËÂÌÚ_7-2);
      }

      .cls-2 {
        fill: url(#_ÂÁ_Ï_ÌÌ_È_ËÂÌÚ_7);
      }
    </style>
    <linearGradient id="_ÂÁ_Ï_ÌÌ_È_ËÂÌÚ_7" data-name="¡ÂÁ˚ÏˇÌÌ˚È „‡‰ËÂÌÚ 7" x1="839.18" y1="195.06" x2="1019.54" y2="195.06" gradientTransform="translate(425.09 -636.15) rotate(45)" gradientUnits="userSpaceOnUse">
      <stop offset=".14" stop-color="#fff"/>
      <stop offset=".34" stop-color="#ecedf5"/>
      <stop offset=".56" stop-color="#dee0ed"/>
      <stop offset=".75" stop-color="#d9dceb"/>
      <stop offset=".92" stop-color="#dbe0ef"/>
    </linearGradient>
    <linearGradient id="_ÂÁ_Ï_ÌÌ_È_ËÂÌÚ_7-2" data-name="¡ÂÁ˚ÏˇÌÌ˚È „‡‰ËÂÌÚ 7" x1="0" y1="195.06" x2="988.1" y2="195.06" gradientTransform="matrix(1, 0, 0, 1, 0, 0)" xlink:href="#_ÂÁ_Ï_ÌÌ_È_ËÂÌÚ_7"/>
  </defs>
  <g id="_ÎÓÈ_1" data-name="—ÎÓÈ_1">
    <g>
      <g>
        <rect class="cls-2" x="917.26" y="131.88" width="126.37" height="126.37" rx="7.34" ry="7.34" transform="translate(149.24 750.41) rotate(-45)"/>
        <rect class="cls-1" x="0" y="0" width="988.1" height="390.12" rx="36.06" ry="36.06"/>
      </g>
      <g>
        <path d="m144.76,242.08c8.97,5.52,22.08,10.12,35.88,10.12,20.47,0,32.43-10.81,32.43-26.45,0-14.49-8.28-22.77-29.21-30.82-25.3-8.97-40.94-22.08-40.94-43.93,0-24.15,20.01-42.09,50.14-42.09,15.87,0,27.37,3.68,34.27,7.59l-5.52,16.33c-5.06-2.76-15.41-7.36-29.44-7.36-21.16,0-29.21,12.65-29.21,23.23,0,14.49,9.43,21.62,30.82,29.9,26.22,10.12,39.56,22.77,39.56,45.54,0,23.92-17.71,44.85-54.28,44.85-14.95,0-31.28-4.6-39.56-10.12l5.06-16.79Z"/>
        <path d="m353.37,236.1c0,11.5.23,21.62.92,30.36h-17.94l-1.15-18.17h-.46c-5.29,8.97-17.02,20.7-36.8,20.7-17.48,0-38.41-9.66-38.41-48.76v-65.09h20.24v61.64c0,21.16,6.44,35.42,24.84,35.42,13.57,0,23-9.43,26.68-18.4,1.15-2.99,1.84-6.67,1.84-10.35v-68.31h20.24v80.96Z"/>
        <path d="m409.49,123.86c.23,6.9-4.83,12.42-12.88,12.42-7.13,0-12.19-5.52-12.19-12.42s5.29-12.65,12.65-12.65,12.42,5.52,12.42,12.65Zm-22.54,142.6v-111.32h20.24v111.32h-20.24Z"/>
        <path d="m448.59,155.14l21.85,62.56c3.68,10.12,6.67,19.32,8.97,28.52h.69c2.53-9.2,5.75-18.4,9.43-28.52l21.62-62.56h21.16l-43.7,111.32h-19.32l-42.32-111.32h21.62Z"/>
        <path d="m628.67,239.78c0,9.66.46,19.09,1.84,26.68h-18.4l-1.61-14.03h-.69c-6.21,8.74-18.17,16.56-34.04,16.56-22.54,0-34.04-15.87-34.04-31.97,0-26.91,23.92-41.63,66.93-41.4v-2.3c0-9.2-2.53-25.76-25.3-25.76-10.35,0-21.16,3.22-28.98,8.28l-4.6-13.34c9.2-5.98,22.54-9.89,36.57-9.89,34.04,0,42.32,23.23,42.32,45.54v41.63Zm-19.55-30.13c-22.08-.46-47.15,3.45-47.15,25.07,0,13.11,8.74,19.32,19.09,19.32,14.49,0,23.69-9.2,26.91-18.63.69-2.07,1.15-4.37,1.15-6.44v-19.32Z"/>
        <path d="m661.33,185.27c0-11.5-.23-20.93-.92-30.13h17.94l1.15,18.4h.46c5.52-10.58,18.4-20.93,36.8-20.93,15.41,0,39.33,9.2,39.33,47.38v66.47h-20.24v-64.17c0-17.94-6.67-32.89-25.76-32.89-13.34,0-23.69,9.43-27.14,20.7-.92,2.53-1.38,5.98-1.38,9.43v66.93h-20.24v-81.19Z"/>
        <path d="m812.44,128.46v26.68h28.98v15.41h-28.98v60.03c0,13.8,3.91,21.62,15.18,21.62,5.52,0,8.74-.46,11.73-1.38l.92,15.18c-3.91,1.61-10.12,2.99-17.94,2.99-9.43,0-17.02-3.22-21.85-8.74-5.75-5.98-7.82-15.87-7.82-28.98v-60.72h-17.25v-15.41h17.25v-20.47l19.78-6.21Z"/>
      </g>
    </g>
  </g>
</svg>