<?xml version="1.0" encoding="UTF-8"?>
<svg id="Calque_2" data-name="Calque 2" xmlns="http://www.w3.org/2000/svg" xmlns:xlink="http://www.w3.org/1999/xlink" viewBox="0 0 1353.67 390.12">
  <defs>
    <style>
      .cls-1 {
        fill: url(#_ÂÁ_Ï_ÌÌ_È_ËÂÌÚ_7-2);
      }

      .cls-2 {
        fill: url(#_ÂÁ_Ï_ÌÌ_È_ËÂÌÚ_7);
      }
    </style>
    <linearGradient id="_ÂÁ_Ï_ÌÌ_È_ËÂÌÚ_7" data-name="¡ÂÁ˚ÏˇÌÌ˚È „‡‰ËÂÌÚ 7" x1="1126.08" y1="195.06" x2="1306.45" y2="195.06" gradientTransform="translate(509.13 -839.02) rotate(45)" gradientUnits="userSpaceOnUse">
      <stop offset=".14" stop-color="#fff"/>
      <stop offset=".34" stop-color="#ecedf5"/>
      <stop offset=".56" stop-color="#dee0ed"/>
      <stop offset=".75" stop-color="#d9dceb"/>
      <stop offset=".92" stop-color="#dbe0ef"/>
    </linearGradient>
    <linearGradient id="_ÂÁ_Ï_ÌÌ_È_ËÂÌÚ_7-2" data-name="¡ÂÁ˚ÏˇÌÌ˚È „‡‰ËÂÌÚ 7" x1="0" y1="195.06" x2="1275" y2="195.06" gradientTransform="matrix(1, 0, 0, 1, 0, 0)" xlink:href="#_ÂÁ_Ï_ÌÌ_È_ËÂÌÚ_7"/>
  </defs>
  <g id="_ÎÓÈ_1" data-name="—ÎÓÈ_1">
    <g>
      <g>
        <rect class="cls-2" x="1204.17" y="131.88" width="126.37" height="126.37" rx="7.34" ry="7.34" transform="translate(233.27 953.29) rotate(-45)"/>
        <rect class="cls-1" width="1275" height="390.12" rx="40.97" ry="40.97"/>
      </g>
      <g>
        <path d="m171.07,217.7l-16.1,48.76h-20.7l52.67-155.02h24.15l52.9,155.02h-21.39l-16.56-48.76h-54.97Zm50.83-15.64l-15.18-44.62c-3.45-10.12-5.75-19.32-8.05-28.29h-.46c-2.3,9.2-4.83,18.63-7.82,28.06l-15.18,44.85h46.69Z"/>
        <path d="m376.46,236.1c0,11.5.23,21.62.92,30.36h-17.94l-1.15-18.17h-.46c-5.29,8.97-17.02,20.7-36.8,20.7-17.48,0-38.41-9.66-38.41-48.76v-65.09h20.24v61.64c0,21.16,6.44,35.42,24.84,35.42,13.57,0,23-9.43,26.68-18.4,1.15-2.99,1.84-6.67,1.84-10.35v-68.31h20.24v80.96Z"/>
        <path d="m506.18,103.16v134.55c0,9.89.23,21.16.92,28.75h-18.17l-.92-19.32h-.46c-6.21,12.42-19.78,21.85-37.95,21.85-26.91,0-47.61-22.77-47.61-56.58-.23-37.03,22.77-59.8,49.91-59.8,17.02,0,28.52,8.05,33.58,17.02h.46v-66.47h20.24Zm-20.24,97.29c0-2.53-.23-5.98-.92-8.51-2.99-12.88-14.03-23.46-29.21-23.46-20.93,0-33.35,18.4-33.35,43.01,0,22.54,11.04,41.17,32.89,41.17,13.57,0,25.99-8.97,29.67-24.15.69-2.76.92-5.52.92-8.74v-19.32Z"/>
        <path d="m562.3,123.86c.23,6.9-4.83,12.42-12.88,12.42-7.13,0-12.19-5.52-12.19-12.42s5.29-12.65,12.65-12.65,12.42,5.52,12.42,12.65Zm-22.54,142.6v-111.32h20.24v111.32h-20.24Z"/>
        <path d="m694.32,209.88c0,41.17-28.52,59.11-55.43,59.11-30.13,0-53.36-22.08-53.36-57.27,0-37.26,24.38-59.11,55.2-59.11s53.59,23.23,53.59,57.27Zm-88.32,1.15c0,24.38,14.03,42.78,33.81,42.78s33.81-18.17,33.81-43.24c0-18.86-9.43-42.78-33.35-42.78s-34.27,22.08-34.27,43.24Z"/>
        <path d="m901.78,187.34c0,53.36-32.43,81.65-71.99,81.65s-69.69-31.74-69.69-78.66c0-49.22,30.59-81.42,71.99-81.42s69.69,32.43,69.69,78.43Zm-120.29,2.53c0,33.12,17.94,62.79,49.45,62.79s49.68-29.21,49.68-64.4c0-30.82-16.1-63.02-49.45-63.02s-49.68,30.59-49.68,64.63Z"/>
        <path d="m927.77,111.44h83.49v16.79h-63.48v51.52h58.65v16.56h-58.65v70.15h-20.01V111.44Z"/>
        <path d="m1039.78,111.44h83.49v16.79h-63.48v51.52h58.65v16.56h-58.65v70.15h-20.01V111.44Z"/>
      </g>
    </g>
  </g>
</svg>