<?xml version="1.0" encoding="UTF-8"?>
<svg id="Calque_2" data-name="Calque 2" xmlns="http://www.w3.org/2000/svg" xmlns:xlink="http://www.w3.org/1999/xlink" viewBox="0 0 1327.01 390.12">
  <defs>
    <style>
      .cls-1 {
        fill: url(#_ÂÁ_Ï_ÌÌ_È_ËÂÌÚ_7-2);
      }

      .cls-2 {
        fill: url(#_ÂÁ_Ï_ÌÌ_È_ËÂÌÚ_7);
      }
    </style>
    <linearGradient id="_ÂÁ_Ï_ÌÌ_È_ËÂÌÚ_7" data-name="¡ÂÁ˚ÏˇÌÌ˚È „‡‰ËÂÌÚ 7" x1="1099.42" y1="195.06" x2="1279.78" y2="195.06" gradientTransform="translate(501.32 -820.17) rotate(45)" gradientUnits="userSpaceOnUse">
      <stop offset=".14" stop-color="#fff"/>
      <stop offset=".34" stop-color="#ecedf5"/>
      <stop offset=".56" stop-color="#dee0ed"/>
      <stop offset=".75" stop-color="#d9dceb"/>
      <stop offset=".92" stop-color="#dbe0ef"/>
    </linearGradient>
    <linearGradient id="_ÂÁ_Ï_ÌÌ_È_ËÂÌÚ_7-2" data-name="¡ÂÁ˚ÏˇÌÌ˚È „‡‰ËÂÌÚ 7" x1="0" y1="195.06" x2="1248.34" y2="195.06" gradientTransform="matrix(1, 0, 0, 1, 0, 0)" xlink:href="#_ÂÁ_Ï_ÌÌ_È_ËÂÌÚ_7"/>
  </defs>
  <g id="_ÎÓÈ_1" data-name="—ÎÓÈ_1">
    <g>
      <g>
        <rect class="cls-2" x="1177.51" y="131.88" width="126.37" height="126.37" rx="7.34" ry="7.34" transform="translate(225.46 934.43) rotate(-45)"/>
        <rect class="cls-1" x="0" width="1248.34" height="390.12" rx="40.54" ry="40.54"/>
      </g>
      <g>
        <path d="m153.61,113.28c9.66-1.61,22.31-2.99,38.41-2.99,19.78,0,34.27,4.6,43.47,12.88,8.51,7.36,13.57,18.63,13.57,32.43s-4.14,25.07-11.96,33.12c-10.58,11.27-27.83,17.02-47.38,17.02-5.98,0-11.5-.23-16.1-1.38v62.1h-20.01V113.28Zm20.01,74.75c4.37,1.15,9.89,1.61,16.56,1.61,24.15,0,38.87-11.73,38.87-33.12s-14.49-30.36-36.57-30.36c-8.74,0-15.41.69-18.86,1.61v60.26Z"/>
        <path d="m271.6,189.87c0-13.11-.23-24.38-.92-34.73h17.71l.69,21.85h.92c5.06-14.95,17.25-24.38,30.82-24.38,2.3,0,3.91.23,5.75.69v19.09c-2.07-.46-4.14-.69-6.9-.69-14.26,0-24.38,10.81-27.14,25.99-.46,2.76-.92,5.98-.92,9.43v59.34h-20.01v-76.59Z"/>
        <path d="m355.78,214.48c.46,27.37,17.94,38.64,38.18,38.64,14.49,0,23.23-2.53,30.82-5.75l3.45,14.49c-7.13,3.22-19.32,7.13-37.03,7.13-34.27,0-54.74-22.77-54.74-56.35s19.78-60.03,52.21-60.03c36.34,0,46,31.97,46,52.44,0,4.14-.46,7.36-.69,9.43h-78.2Zm59.34-14.49c.23-12.88-5.29-32.89-28.06-32.89-20.47,0-29.44,18.86-31.05,32.89h59.11Zm4.83-92.92l-28.06,32.89h-14.49l20.24-32.89h22.31Z"/>
        <path d="m539.09,262.32c-5.29,2.76-17.02,6.67-31.97,6.67-33.58,0-55.43-23-55.43-57.04s23.46-59.11,59.8-59.11c11.96,0,22.54,2.99,28.06,5.75l-4.6,15.64c-4.83-2.76-12.42-5.29-23.46-5.29-25.53,0-39.33,18.86-39.33,42.09,0,25.76,16.56,41.63,38.64,41.63,11.5,0,19.09-2.99,24.84-5.52l3.45,15.18Z"/>
        <path d="m572.67,214.48c.46,27.37,17.94,38.64,38.18,38.64,14.49,0,23.23-2.53,30.82-5.75l3.45,14.49c-7.13,3.22-19.32,7.13-37.03,7.13-34.27,0-54.74-22.77-54.74-56.35s19.78-60.03,52.21-60.03c36.34,0,46,31.97,46,52.44,0,4.14-.46,7.36-.69,9.43h-78.2Zm59.34-14.49c.23-12.88-5.29-32.89-28.06-32.89-20.47,0-29.44,18.86-31.05,32.89h59.11Zm4.83-92.92l-28.06,32.89h-14.49l20.24-32.89h22.31Z"/>
        <path d="m772.77,103.16v134.55c0,9.89.23,21.16.92,28.75h-18.17l-.92-19.32h-.46c-6.21,12.42-19.78,21.85-37.95,21.85-26.91,0-47.61-22.77-47.61-56.58-.23-37.03,22.77-59.8,49.91-59.8,17.02,0,28.52,8.05,33.58,17.02h.46v-66.47h20.24Zm-20.24,97.29c0-2.53-.23-5.98-.92-8.51-2.99-12.88-14.03-23.46-29.21-23.46-20.93,0-33.35,18.4-33.35,43.01,0,22.54,11.04,41.17,32.89,41.17,13.57,0,25.99-8.97,29.67-24.15.69-2.76.92-5.52.92-8.74v-19.32Z"/>
        <path d="m817.62,214.48c.46,27.37,17.94,38.64,38.18,38.64,14.49,0,23.23-2.53,30.82-5.75l3.45,14.49c-7.13,3.22-19.32,7.13-37.03,7.13-34.27,0-54.74-22.77-54.74-56.35s19.78-60.03,52.21-60.03c36.34,0,46,31.97,46,52.44,0,4.14-.46,7.36-.69,9.43h-78.2Zm59.34-14.49c.23-12.88-5.29-32.89-28.06-32.89-20.47,0-29.44,18.86-31.05,32.89h59.11Z"/>
        <path d="m921.58,185.27c0-11.5-.23-20.93-.92-30.13h17.94l1.15,18.4h.46c5.52-10.58,18.4-20.93,36.8-20.93,15.41,0,39.33,9.2,39.33,47.38v66.47h-20.24v-64.17c0-17.94-6.67-32.89-25.76-32.89-13.34,0-23.69,9.43-27.14,20.7-.92,2.53-1.38,5.98-1.38,9.43v66.93h-20.24v-81.19Z"/>
        <path d="m1072.69,128.46v26.68h28.98v15.41h-28.98v60.03c0,13.8,3.91,21.62,15.18,21.62,5.52,0,8.74-.46,11.73-1.38l.92,15.18c-3.91,1.61-10.12,2.99-17.94,2.99-9.43,0-17.02-3.22-21.85-8.74-5.75-5.98-7.82-15.87-7.82-28.98v-60.72h-17.25v-15.41h17.25v-20.47l19.78-6.21Z"/>
      </g>
    </g>
  </g>
</svg>