<?xml version="1.0" encoding="UTF-8"?>
<svg id="Calque_2" data-name="Calque 2" xmlns="http://www.w3.org/2000/svg" xmlns:xlink="http://www.w3.org/1999/xlink" viewBox="0 0 817.6 390.12">
  <defs>
    <style>
      .cls-1 {
        fill: url(#_ÂÁ_Ï_ÌÌ_È_ËÂÌÚ_7-2);
      }

      .cls-2 {
        fill: url(#_ÂÁ_Ï_ÌÌ_È_ËÂÌÚ_7);
      }
    </style>
    <linearGradient id="_ÂÁ_Ï_ÌÌ_È_ËÂÌÚ_7" data-name="¡ÂÁ˚ÏˇÌÌ˚È „‡‰ËÂÌÚ 7" x1="590.02" y1="195.06" x2="770.38" y2="195.06" gradientTransform="translate(352.12 -459.97) rotate(45)" gradientUnits="userSpaceOnUse">
      <stop offset=".14" stop-color="#fff"/>
      <stop offset=".34" stop-color="#ecedf5"/>
      <stop offset=".56" stop-color="#dee0ed"/>
      <stop offset=".75" stop-color="#d9dceb"/>
      <stop offset=".92" stop-color="#dbe0ef"/>
    </linearGradient>
    <linearGradient id="_ÂÁ_Ï_ÌÌ_È_ËÂÌÚ_7-2" data-name="¡ÂÁ˚ÏˇÌÌ˚È „‡‰ËÂÌÚ 7" x1="0" y1="195.06" x2="738.94" y2="195.06" gradientTransform="matrix(1, 0, 0, 1, 0, 0)" xlink:href="#_ÂÁ_Ï_ÌÌ_È_ËÂÌÚ_7"/>
  </defs>
  <g id="_ÎÓÈ_1" data-name="—ÎÓÈ_1">
    <g>
      <g>
        <rect class="cls-2" x="668.1" y="131.88" width="126.37" height="126.37" rx="7.34" ry="7.34" transform="translate(76.26 574.23) rotate(-45)"/>
        <rect class="cls-1" width="738.94" height="390.12" rx="31.19" ry="31.19"/>
      </g>
      <g>
        <path d="m169.29,111.44v155.02h-20.01V111.44h20.01Z"/>
        <path d="m205.86,185.27c0-11.5-.23-20.93-.92-30.13h17.94l1.15,18.4h.46c5.52-10.58,18.4-20.93,36.8-20.93,15.41,0,39.33,9.2,39.33,47.38v66.47h-20.24v-64.17c0-17.94-6.67-32.89-25.76-32.89-13.34,0-23.69,9.43-27.14,20.7-.92,2.53-1.38,5.98-1.38,9.43v66.93h-20.24v-81.19Z"/>
        <path d="m335.58,266.46v-95.91h-15.64v-15.41h15.64v-5.29c0-15.64,3.45-29.9,12.88-38.87,7.59-7.36,17.71-10.35,27.14-10.35,7.13,0,13.34,1.61,17.25,3.22l-2.76,15.64c-2.99-1.38-7.13-2.53-12.88-2.53-17.25,0-21.62,15.18-21.62,32.2v5.98h26.91v15.41h-26.91v95.91h-20.01Z"/>
        <path d="m498.42,209.88c0,41.17-28.52,59.11-55.43,59.11-30.13,0-53.36-22.08-53.36-57.27,0-37.26,24.38-59.11,55.2-59.11s53.59,23.23,53.59,57.27Zm-88.32,1.15c0,24.38,14.03,42.78,33.81,42.78s33.81-18.17,33.81-43.24c0-18.86-9.43-42.78-33.35-42.78s-34.27,22.08-34.27,43.24Z"/>
        <path d="m521.19,245.76c5.98,3.91,16.56,8.05,26.68,8.05,14.72,0,21.62-7.36,21.62-16.56,0-9.66-5.75-14.95-20.7-20.47-20.01-7.13-29.44-18.17-29.44-31.51,0-17.94,14.49-32.66,38.41-32.66,11.27,0,21.16,3.22,27.37,6.9l-5.06,14.72c-4.37-2.76-12.42-6.44-22.77-6.44-11.96,0-18.63,6.9-18.63,15.18,0,9.2,6.67,13.34,21.16,18.86,19.32,7.36,29.21,17.02,29.21,33.58,0,19.55-15.18,33.58-41.63,33.58-12.19,0-23.46-3.22-31.28-7.82l5.06-15.41Z"/>
      </g>
    </g>
  </g>
</svg>