<?xml version="1.0" encoding="UTF-8"?>
<svg id="Calque_2" data-name="Calque 2" xmlns="http://www.w3.org/2000/svg" xmlns:xlink="http://www.w3.org/1999/xlink" viewBox="0 0 817.6 390.12">
  <defs>
    <style>
      .cls-1 {
        fill: url(#_ÂÁ_Ï_ÌÌ_È_ËÂÌÚ_7-2);
      }

      .cls-2 {
        fill: url(#_ÂÁ_Ï_ÌÌ_È_ËÂÌÚ_7);
      }
    </style>
    <linearGradient id="_ÂÁ_Ï_ÌÌ_È_ËÂÌÚ_7" data-name="¡ÂÁ˚ÏˇÌÌ˚È „‡‰ËÂÌÚ 7" x1="590.02" y1="195.06" x2="770.38" y2="195.06" gradientTransform="translate(352.12 -459.97) rotate(45)" gradientUnits="userSpaceOnUse">
      <stop offset=".14" stop-color="#fff"/>
      <stop offset=".34" stop-color="#ecedf5"/>
      <stop offset=".56" stop-color="#dee0ed"/>
      <stop offset=".75" stop-color="#d9dceb"/>
      <stop offset=".92" stop-color="#dbe0ef"/>
    </linearGradient>
    <linearGradient id="_ÂÁ_Ï_ÌÌ_È_ËÂÌÚ_7-2" data-name="¡ÂÁ˚ÏˇÌÌ˚È „‡‰ËÂÌÚ 7" x1="0" y1="195.06" x2="738.94" y2="195.06" gradientTransform="matrix(1, 0, 0, 1, 0, 0)" xlink:href="#_ÂÁ_Ï_ÌÌ_È_ËÂÌÚ_7"/>
  </defs>
  <g id="_ÎÓÈ_1" data-name="—ÎÓÈ_1">
    <g>
      <g>
        <rect class="cls-2" x="668.1" y="131.88" width="126.37" height="126.37" rx="7.34" ry="7.34" transform="translate(76.26 574.23) rotate(-45)"/>
        <rect class="cls-1" width="738.94" height="390.12" rx="31.19" ry="31.19"/>
      </g>
      <g>
        <path d="m201.95,222.12l-16.1,48.76h-20.7l52.67-155.02h24.15l52.9,155.02h-21.39l-16.56-48.76h-54.97Zm50.83-15.64l-15.18-44.62c-3.45-10.12-5.75-19.32-8.05-28.29h-.46c-2.3,9.2-4.83,18.63-7.82,28.06l-15.18,44.85h46.69Z"/>
        <path d="m338.81,128.28c.23,6.9-4.83,12.42-12.88,12.42-7.13,0-12.19-5.52-12.19-12.42s5.29-12.65,12.65-12.65,12.42,5.52,12.42,12.65Zm-22.54,142.6v-111.32h20.24v111.32h-20.24Z"/>
        <path d="m466.22,107.58v134.55c0,9.89.23,21.16.92,28.75h-18.17l-.92-19.32h-.46c-6.21,12.42-19.78,21.85-37.95,21.85-26.91,0-47.61-22.77-47.61-56.58-.23-37.03,22.77-59.8,49.91-59.8,17.02,0,28.52,8.05,33.58,17.02h.46v-66.47h20.24Zm-20.24,97.29c0-2.53-.23-5.98-.92-8.51-2.99-12.88-14.03-23.46-29.21-23.46-20.93,0-33.35,18.4-33.35,43.01,0,22.54,11.04,41.17,32.89,41.17,13.57,0,25.99-8.97,29.67-24.15.69-2.76.92-5.52.92-8.74v-19.32Z"/>
        <path d="m511.07,218.9c.46,27.37,17.94,38.64,38.18,38.64,14.49,0,23.23-2.53,30.82-5.75l3.45,14.49c-7.13,3.22-19.32,7.13-37.03,7.13-34.27,0-54.74-22.77-54.74-56.35s19.78-60.03,52.21-60.03c36.34,0,46,31.97,46,52.44,0,4.14-.46,7.36-.69,9.43h-78.2Zm59.34-14.49c.23-12.88-5.29-32.89-28.06-32.89-20.47,0-29.44,18.86-31.05,32.89h59.11Z"/>
      </g>
    </g>
  </g>
</svg>