<?xml version="1.0" encoding="UTF-8"?>
<svg id="Calque_2" data-name="Calque 2" xmlns="http://www.w3.org/2000/svg" xmlns:xlink="http://www.w3.org/1999/xlink" viewBox="0 0 1611.47 390.12">
  <defs>
    <style>
      .cls-1 {
        fill: url(#_ÂÁ_Ï_ÌÌ_È_ËÂÌÚ_7-2);
      }

      .cls-2 {
        fill: url(#_ÂÁ_Ï_ÌÌ_È_ËÂÌÚ_7);
      }
    </style>
    <linearGradient id="_ÂÁ_Ï_ÌÌ_È_ËÂÌÚ_7" data-name="¡ÂÁ˚ÏˇÌÌ˚È „‡‰ËÂÌÚ 7" x1="1383.88" y1="195.06" x2="1564.25" y2="195.06" gradientTransform="translate(584.64 -1021.32) rotate(45)" gradientUnits="userSpaceOnUse">
      <stop offset=".14" stop-color="#fff"/>
      <stop offset=".34" stop-color="#ecedf5"/>
      <stop offset=".56" stop-color="#dee0ed"/>
      <stop offset=".75" stop-color="#d9dceb"/>
      <stop offset=".92" stop-color="#dbe0ef"/>
    </linearGradient>
    <linearGradient id="_ÂÁ_Ï_ÌÌ_È_ËÂÌÚ_7-2" data-name="¡ÂÁ˚ÏˇÌÌ˚È „‡‰ËÂÌÚ 7" x1="0" y1="195.06" x2="1532.8" y2="195.06" gradientTransform="matrix(1, 0, 0, 1, 0, 0)" xlink:href="#_ÂÁ_Ï_ÌÌ_È_ËÂÌÚ_7"/>
  </defs>
  <g id="_ÎÓÈ_1" data-name="—ÎÓÈ_1">
    <g>
      <g>
        <rect class="cls-2" x="1461.97" y="131.88" width="126.37" height="126.37" rx="7.34" ry="7.34" transform="translate(308.78 1135.58) rotate(-45)"/>
        <rect class="cls-1" width="1532.8" height="390.12" rx="44.92" ry="44.92"/>
      </g>
      <g>
        <path d="m212.22,260.26l-50.6-155.02h21.62l24.15,76.36c6.67,20.93,12.42,39.79,16.56,57.96h.46c4.37-17.94,10.81-37.49,17.71-57.73l26.22-76.59h21.39l-55.43,155.02h-22.08Z"/>
        <path d="m324.7,117.66c.23,6.9-4.83,12.42-12.88,12.42-7.13,0-12.19-5.52-12.19-12.42s5.29-12.65,12.65-12.65,12.42,5.52,12.42,12.65Zm-22.54,142.6v-111.32h20.24v111.32h-20.24Z"/>
        <path d="m353.22,239.56c5.98,3.91,16.56,8.05,26.68,8.05,14.72,0,21.62-7.36,21.62-16.56,0-9.66-5.75-14.95-20.7-20.47-20.01-7.13-29.44-18.17-29.44-31.51,0-17.94,14.49-32.66,38.41-32.66,11.27,0,21.16,3.22,27.37,6.9l-5.06,14.72c-4.37-2.76-12.42-6.44-22.77-6.44-11.96,0-18.63,6.9-18.63,15.18,0,9.2,6.67,13.34,21.16,18.86,19.32,7.36,29.21,17.02,29.21,33.58,0,19.55-15.18,33.58-41.63,33.58-12.19,0-23.46-3.22-31.28-7.82l5.06-15.41Z"/>
        <path d="m469.59,117.66c.23,6.9-4.83,12.42-12.88,12.42-7.13,0-12.19-5.52-12.19-12.42s5.29-12.65,12.65-12.65,12.42,5.52,12.42,12.65Zm-22.54,142.6v-111.32h20.24v111.32h-20.24Z"/>
        <path d="m525.25,122.26v26.68h28.98v15.41h-28.98v60.03c0,13.8,3.91,21.62,15.18,21.62,5.52,0,8.74-.46,11.73-1.38l.92,15.18c-3.91,1.61-10.12,2.99-17.94,2.99-9.43,0-17.02-3.22-21.85-8.74-5.75-5.98-7.82-15.87-7.82-28.98v-60.72h-17.25v-15.41h17.25v-20.47l19.78-6.21Z"/>
        <path d="m586.89,208.28c.46,27.37,17.94,38.64,38.18,38.64,14.49,0,23.23-2.53,30.82-5.75l3.45,14.49c-7.13,3.22-19.32,7.13-37.03,7.13-34.27,0-54.74-22.77-54.74-56.35s19.78-60.03,52.21-60.03c36.34,0,46,31.97,46,52.44,0,4.14-.46,7.36-.69,9.43h-78.2Zm59.34-14.49c.23-12.88-5.29-32.89-28.06-32.89-20.47,0-29.44,18.86-31.05,32.89h59.11Z"/>
        <path d="m834.6,244.16c0,25.53-5.06,41.17-15.87,50.83-10.81,10.12-26.45,13.34-40.48,13.34s-28.06-3.22-37.03-9.2l5.06-15.41c7.36,4.6,18.86,8.74,32.66,8.74,20.7,0,35.88-10.81,35.88-38.87v-12.42h-.46c-6.21,10.35-18.17,18.63-35.42,18.63-27.6,0-47.38-23.46-47.38-54.28,0-37.72,24.61-59.11,50.14-59.11,19.32,0,29.9,10.12,34.73,19.32h.46l.92-16.79h17.71c-.46,8.05-.92,17.02-.92,30.59v64.63Zm-20.01-51.29c0-3.45-.23-6.44-1.15-9.2-3.68-11.73-13.57-21.39-28.29-21.39-19.32,0-33.12,16.33-33.12,42.09,0,21.85,11.04,40.02,32.89,40.02,12.42,0,23.69-7.82,28.06-20.7,1.15-3.45,1.61-7.36,1.61-10.81v-20.01Z"/>
        <path d="m961.32,229.9c0,11.5.23,21.62.92,30.36h-17.94l-1.15-18.17h-.46c-5.29,8.97-17.02,20.7-36.8,20.7-17.48,0-38.41-9.66-38.41-48.76v-65.09h20.24v61.64c0,21.16,6.44,35.42,24.84,35.42,13.57,0,23-9.43,26.68-18.4,1.15-2.99,1.84-6.67,1.84-10.35v-68.31h20.24v80.96Z"/>
        <path d="m1017.44,117.66c.23,6.9-4.83,12.42-12.88,12.42-7.13,0-12.19-5.52-12.19-12.42s5.29-12.65,12.65-12.65,12.42,5.52,12.42,12.65Zm-22.54,142.6v-111.32h20.24v111.32h-20.24Z"/>
        <path d="m1144.86,96.96v134.55c0,9.89.23,21.16.92,28.75h-18.17l-.92-19.32h-.46c-6.21,12.42-19.78,21.85-37.95,21.85-26.91,0-47.61-22.77-47.61-56.58-.23-37.03,22.77-59.8,49.91-59.8,17.02,0,28.52,8.05,33.58,17.02h.46v-66.47h20.24Zm-20.24,97.29c0-2.53-.23-5.98-.92-8.51-2.99-12.88-14.03-23.46-29.21-23.46-20.93,0-33.35,18.4-33.35,43.01,0,22.54,11.04,41.17,32.89,41.17,13.57,0,25.99-8.97,29.67-24.15.69-2.76.92-5.52.92-8.74v-19.32Z"/>
        <path d="m1189.71,208.28c.46,27.37,17.94,38.64,38.18,38.64,14.49,0,23.23-2.53,30.82-5.75l3.45,14.49c-7.13,3.22-19.32,7.13-37.03,7.13-34.27,0-54.74-22.77-54.74-56.35s19.78-60.03,52.21-60.03c36.34,0,46,31.97,46,52.44,0,4.14-.46,7.36-.69,9.43h-78.2Zm59.34-14.49c.23-12.88-5.29-32.89-28.06-32.89-20.47,0-29.44,18.86-31.05,32.89h59.11Zm4.83-92.92l-28.06,32.89h-14.49l20.24-32.89h22.31Z"/>
        <path d="m1304.94,208.28c.46,27.37,17.94,38.64,38.18,38.64,14.49,0,23.23-2.53,30.82-5.75l3.45,14.49c-7.13,3.22-19.32,7.13-37.03,7.13-34.27,0-54.74-22.77-54.74-56.35s19.78-60.03,52.21-60.03c36.34,0,46,31.97,46,52.44,0,4.14-.46,7.36-.69,9.43h-78.2Zm59.34-14.49c.23-12.88-5.29-32.89-28.06-32.89-20.47,0-29.44,18.86-31.05,32.89h59.11Z"/>
      </g>
    </g>
  </g>
</svg>