<?xml version="1.0" encoding="UTF-8"?>
<svg id="Calque_2" data-name="Calque 2" xmlns="http://www.w3.org/2000/svg" xmlns:xlink="http://www.w3.org/1999/xlink" viewBox="0 0 1415.84 390.12">
  <defs>
    <style>
      .cls-1 {
        fill: url(#_ÂÁ_Ï_ÌÌ_È_ËÂÌÚ_7-2);
      }

      .cls-2 {
        fill: url(#_ÂÁ_Ï_ÌÌ_È_ËÂÌÚ_7);
      }
    </style>
    <linearGradient id="_ÂÁ_Ï_ÌÌ_È_ËÂÌÚ_7" data-name="¡ÂÁ˚ÏˇÌÌ˚È „‡‰ËÂÌÚ 7" x1="1188.26" y1="195.06" x2="1368.62" y2="195.06" gradientTransform="translate(527.34 -882.99) rotate(45)" gradientUnits="userSpaceOnUse">
      <stop offset=".14" stop-color="#fff"/>
      <stop offset=".34" stop-color="#ecedf5"/>
      <stop offset=".56" stop-color="#dee0ed"/>
      <stop offset=".75" stop-color="#d9dceb"/>
      <stop offset=".92" stop-color="#dbe0ef"/>
    </linearGradient>
    <linearGradient id="_ÂÁ_Ï_ÌÌ_È_ËÂÌÚ_7-2" data-name="¡ÂÁ˚ÏˇÌÌ˚È „‡‰ËÂÌÚ 7" x1="0" y1="195.06" x2="1337.18" y2="195.06" gradientTransform="matrix(1, 0, 0, 1, 0, 0)" xlink:href="#_ÂÁ_Ï_ÌÌ_È_ËÂÌÚ_7"/>
  </defs>
  <g id="_ÎÓÈ_1" data-name="—ÎÓÈ_1">
    <g>
      <g>
        <rect class="cls-2" x="1266.35" y="131.88" width="126.37" height="126.37" rx="7.34" ry="7.34" transform="translate(251.48 997.25) rotate(-45)"/>
        <rect class="cls-1" width="1337.18" height="390.12" rx="41.95" ry="41.95"/>
      </g>
      <g>
        <path d="m162.18,121.04c9.66-1.61,22.31-2.99,38.41-2.99,19.78,0,34.27,4.6,43.47,12.88,8.51,7.36,13.57,18.63,13.57,32.43s-4.14,25.07-11.96,33.12c-10.58,11.27-27.83,17.02-47.38,17.02-5.98,0-11.5-.23-16.1-1.38v62.1h-20.01V121.04Zm20.01,74.75c4.37,1.15,9.89,1.61,16.56,1.61,24.15,0,38.87-11.73,38.87-33.12s-14.49-30.36-36.57-30.36c-8.74,0-15.41.69-18.86,1.61v60.26Z"/>
        <path d="m282.71,110.91h20.24v163.3h-20.24V110.91Z"/>
        <path d="m348.25,222.23c.46,27.37,17.94,38.64,38.18,38.64,14.49,0,23.23-2.53,30.82-5.75l3.45,14.49c-7.13,3.22-19.32,7.13-37.03,7.13-34.27,0-54.74-22.77-54.74-56.35s19.78-60.03,52.21-60.03c36.34,0,46,31.97,46,52.44,0,4.14-.46,7.36-.69,9.43h-78.2Zm59.34-14.49c.23-12.88-5.29-32.89-28.06-32.89-20.47,0-29.44,18.86-31.05,32.89h59.11Z"/>
        <path d="m474.75,131.61c.23,6.9-4.83,12.42-12.88,12.42-7.13,0-12.19-5.52-12.19-12.42s5.29-12.65,12.65-12.65,12.42,5.52,12.42,12.65Zm-22.54,142.6v-111.32h20.24v111.32h-20.24Z"/>
        <path d="m506.03,193.02c0-11.5-.23-20.93-.92-30.13h17.94l1.15,18.4h.46c5.52-10.58,18.4-20.93,36.8-20.93,15.41,0,39.33,9.2,39.33,47.38v66.47h-20.24v-64.17c0-17.94-6.67-32.89-25.76-32.89-13.34,0-23.69,9.43-27.14,20.7-.92,2.53-1.38,5.98-1.38,9.43v66.93h-20.24v-81.19Z"/>
        <path d="m693.71,222.23c.46,27.37,17.94,38.64,38.18,38.64,14.49,0,23.23-2.53,30.82-5.75l3.45,14.49c-7.13,3.22-19.32,7.13-37.03,7.13-34.27,0-54.74-22.77-54.74-56.35s19.78-60.03,52.21-60.03c36.34,0,46,31.97,46,52.44,0,4.14-.46,7.36-.69,9.43h-78.2Zm59.34-14.49c.23-12.88-5.29-32.89-28.06-32.89-20.47,0-29.44,18.86-31.05,32.89h59.11Zm4.83-92.92l-28.06,32.89h-14.49l20.24-32.89h22.31Z"/>
        <path d="m877.02,270.07c-5.29,2.76-17.02,6.67-31.97,6.67-33.58,0-55.43-23-55.43-57.04s23.46-59.11,59.8-59.11c11.96,0,22.54,2.99,28.06,5.75l-4.6,15.64c-4.83-2.76-12.42-5.29-23.46-5.29-25.53,0-39.33,18.86-39.33,42.09,0,25.76,16.56,41.63,38.64,41.63,11.5,0,19.09-2.99,24.84-5.52l3.45,15.18Z"/>
        <path d="m900.71,197.62c0-13.11-.23-24.38-.92-34.73h17.71l.69,21.85h.92c5.06-14.95,17.25-24.38,30.82-24.38,2.3,0,3.91.23,5.75.69v19.09c-2.07-.46-4.14-.69-6.9-.69-14.26,0-24.38,10.81-27.14,25.99-.46,2.76-.92,5.98-.92,9.43v59.34h-20.01v-76.59Z"/>
        <path d="m1052.97,247.53c0,9.66.46,19.09,1.84,26.68h-18.4l-1.61-14.03h-.69c-6.21,8.74-18.17,16.56-34.04,16.56-22.54,0-34.04-15.87-34.04-31.97,0-26.91,23.92-41.63,66.93-41.4v-2.3c0-9.2-2.53-25.76-25.3-25.76-10.35,0-21.16,3.22-28.98,8.28l-4.6-13.34c9.2-5.98,22.54-9.89,36.57-9.89,34.04,0,42.32,23.23,42.32,45.54v41.63Zm-19.55-30.13c-22.08-.46-47.15,3.45-47.15,25.07,0,13.11,8.74,19.32,19.09,19.32,14.49,0,23.69-9.2,26.91-18.63.69-2.07,1.15-4.37,1.15-6.44v-19.32Z"/>
        <path d="m1085.63,193.02c0-11.5-.23-20.93-.92-30.13h17.94l1.15,18.4h.46c5.52-10.58,18.4-20.93,36.8-20.93,15.41,0,39.33,9.2,39.33,47.38v66.47h-20.24v-64.17c0-17.94-6.67-32.89-25.76-32.89-13.34,0-23.69,9.43-27.14,20.7-.92,2.53-1.38,5.98-1.38,9.43v66.93h-20.24v-81.19Z"/>
      </g>
    </g>
  </g>
</svg>