<?xml version="1.0" encoding="UTF-8"?>
<svg id="Calque_2" data-name="Calque 2" xmlns="http://www.w3.org/2000/svg" xmlns:xlink="http://www.w3.org/1999/xlink" viewBox="0 0 2053.68 390.12">
  <defs>
    <style>
      .cls-1 {
        fill: url(#_ÂÁ_Ï_ÌÌ_È_ËÂÌÚ_7-2);
      }

      .cls-2 {
        fill: url(#_ÂÁ_Ï_ÌÌ_È_ËÂÌÚ_7);
      }
    </style>
    <linearGradient id="_ÂÁ_Ï_ÌÌ_È_ËÂÌÚ_7" data-name="¡ÂÁ˚ÏˇÌÌ˚È „‡‰ËÂÌÚ 7" x1="1826.09" y1="195.06" x2="2006.45" y2="195.06" gradientTransform="translate(714.16 -1334) rotate(45)" gradientUnits="userSpaceOnUse">
      <stop offset=".14" stop-color="#fff"/>
      <stop offset=".34" stop-color="#ecedf5"/>
      <stop offset=".56" stop-color="#dee0ed"/>
      <stop offset=".75" stop-color="#d9dceb"/>
      <stop offset=".92" stop-color="#dbe0ef"/>
    </linearGradient>
    <linearGradient id="_ÂÁ_Ï_ÌÌ_È_ËÂÌÚ_7-2" data-name="¡ÂÁ˚ÏˇÌÌ˚È „‡‰ËÂÌÚ 7" x1="0" y1="195.06" x2="1975.01" y2="195.06" gradientTransform="matrix(1, 0, 0, 1, 0, 0)" xlink:href="#_ÂÁ_Ï_ÌÌ_È_ËÂÌÚ_7"/>
  </defs>
  <g id="_ÎÓÈ_1" data-name="—ÎÓÈ_1">
    <g>
      <g>
        <rect class="cls-2" x="1904.18" y="131.88" width="126.37" height="126.37" rx="7.34" ry="7.34" transform="translate(438.3 1448.27) rotate(-45)"/>
        <rect class="cls-1" width="1975.01" height="390.12" rx="50.99" ry="50.99"/>
      </g>
      <g>
        <path d="m176.73,115.66c10.12-2.07,24.61-3.22,38.41-3.22,21.39,0,35.19,3.91,44.85,12.65,7.82,6.9,12.19,17.48,12.19,29.44,0,20.47-12.88,34.04-29.21,39.56v.69c11.96,4.14,19.09,15.18,22.77,31.28,5.06,21.62,8.74,36.57,11.96,42.55h-20.7c-2.53-4.6-5.98-17.71-10.35-37.03-4.6-21.39-12.88-29.44-31.05-30.13h-18.86v67.16h-20.01V115.66Zm20.01,70.61h20.47c21.39,0,34.96-11.73,34.96-29.44,0-20.01-14.49-28.75-35.65-28.98-9.66,0-16.56.92-19.78,1.84v56.58Z"/>
        <path d="m311.97,216.63c.46,27.37,17.94,38.64,38.18,38.64,14.49,0,23.23-2.53,30.82-5.75l3.45,14.49c-7.13,3.22-19.32,7.13-37.03,7.13-34.27,0-54.74-22.77-54.74-56.35s19.78-60.03,52.21-60.03c36.34,0,46,31.97,46,52.44,0,4.14-.46,7.36-.69,9.43h-78.2Zm59.34-14.49c.23-12.88-5.29-32.89-28.06-32.89-20.47,0-29.44,18.86-31.05,32.89h59.11Z"/>
        <path d="m512.06,105.31v134.55c0,9.89.23,21.16.92,28.75h-18.17l-.92-19.32h-.46c-6.21,12.42-19.78,21.85-37.95,21.85-26.91,0-47.61-22.77-47.61-56.58-.23-37.03,22.77-59.8,49.91-59.8,17.02,0,28.52,8.05,33.58,17.02h.46v-66.47h20.24Zm-20.24,97.29c0-2.53-.23-5.98-.92-8.51-2.99-12.88-14.03-23.46-29.21-23.46-20.93,0-33.35,18.4-33.35,43.01,0,22.54,11.04,41.17,32.89,41.17,13.57,0,25.99-8.97,29.67-24.15.69-2.76.92-5.52.92-8.74v-19.32Z"/>
        <path d="m556.91,216.63c.46,27.37,17.94,38.64,38.18,38.64,14.49,0,23.23-2.53,30.82-5.75l3.45,14.49c-7.13,3.22-19.32,7.13-37.03,7.13-34.27,0-54.74-22.77-54.74-56.35s19.78-60.03,52.21-60.03c36.34,0,46,31.97,46,52.44,0,4.14-.46,7.36-.69,9.43h-78.2Zm59.34-14.49c.23-12.88-5.29-32.89-28.06-32.89-20.47,0-29.44,18.86-31.05,32.89h59.11Zm4.83-92.92l-28.06,32.89h-14.49l20.24-32.89h22.31Z"/>
        <path d="m660.87,187.42c0-11.5-.23-20.93-.92-30.13h17.71l.92,17.94h.69c6.21-10.58,16.56-20.47,34.96-20.47,15.18,0,26.68,9.2,31.51,22.31h.46c3.45-6.21,7.82-11.04,12.42-14.49,6.67-5.06,14.03-7.82,24.61-7.82,14.72,0,36.57,9.66,36.57,48.3v65.55h-19.78v-63.02c0-21.39-7.82-34.27-24.15-34.27-11.5,0-20.47,8.51-23.92,18.4-.92,2.76-1.61,6.44-1.61,10.12v68.77h-19.78v-66.7c0-17.71-7.82-30.59-23.23-30.59-12.65,0-21.85,10.12-25.07,20.24-1.15,2.99-1.61,6.44-1.61,9.89v67.16h-19.78v-81.19Z"/>
        <path d="m930.89,241.93c0,9.66.46,19.09,1.84,26.68h-18.4l-1.61-14.03h-.69c-6.21,8.74-18.17,16.56-34.04,16.56-22.54,0-34.04-15.87-34.04-31.97,0-26.91,23.92-41.63,66.93-41.4v-2.3c0-9.2-2.53-25.76-25.3-25.76-10.35,0-21.16,3.22-28.98,8.28l-4.6-13.34c9.2-5.98,22.54-9.89,36.57-9.89,34.04,0,42.32,23.23,42.32,45.54v41.63Zm-19.55-30.13c-22.08-.46-47.15,3.45-47.15,25.07,0,13.11,8.74,19.32,19.09,19.32,14.49,0,23.69-9.2,26.91-18.63.69-2.07,1.15-4.37,1.15-6.44v-19.32Z"/>
        <path d="m963.55,192.02c0-13.11-.23-24.38-.92-34.73h17.71l.69,21.85h.92c5.06-14.95,17.25-24.38,30.82-24.38,2.3,0,3.91.23,5.75.69v19.09c-2.07-.46-4.14-.69-6.9-.69-14.26,0-24.38,10.81-27.14,25.99-.46,2.76-.92,5.98-.92,9.43v59.34h-20.01v-76.59Z"/>
        <path d="m1039.68,192.02c0-13.11-.23-24.38-.92-34.73h17.71l.69,21.85h.92c5.06-14.95,17.25-24.38,30.82-24.38,2.3,0,3.91.23,5.75.69v19.09c-2.07-.46-4.14-.69-6.9-.69-14.26,0-24.38,10.81-27.14,25.99-.46,2.76-.92,5.98-.92,9.43v59.34h-20.01v-76.59Z"/>
        <path d="m1123.86,216.63c.46,27.37,17.94,38.64,38.18,38.64,14.49,0,23.23-2.53,30.82-5.75l3.45,14.49c-7.13,3.22-19.32,7.13-37.03,7.13-34.27,0-54.74-22.77-54.74-56.35s19.78-60.03,52.21-60.03c36.34,0,46,31.97,46,52.44,0,4.14-.46,7.36-.69,9.43h-78.2Zm59.34-14.49c.23-12.88-5.29-32.89-28.06-32.89-20.47,0-29.44,18.86-31.05,32.89h59.11Z"/>
        <path d="m1227.82,192.02c0-13.11-.23-24.38-.92-34.73h17.71l.69,21.85h.92c5.06-14.95,17.25-24.38,30.82-24.38,2.3,0,3.91.23,5.75.69v19.09c-2.07-.46-4.14-.69-6.9-.69-14.26,0-24.38,10.81-27.14,25.99-.46,2.76-.92,5.98-.92,9.43v59.34h-20.01v-76.59Z"/>
        <path d="m1359.6,157.29l21.85,62.56c3.68,10.12,6.67,19.32,8.97,28.52h.69c2.53-9.2,5.75-18.4,9.43-28.52l21.62-62.56h21.16l-43.7,111.32h-19.32l-42.32-111.32h21.62Z"/>
        <path d="m1484.95,126.01c.23,6.9-4.83,12.42-12.88,12.42-7.13,0-12.19-5.52-12.19-12.42s5.29-12.65,12.65-12.65,12.42,5.52,12.42,12.65Zm-22.54,142.6v-111.32h20.24v111.32h-20.24Z"/>
        <path d="m1513.47,247.91c5.98,3.91,16.56,8.05,26.68,8.05,14.72,0,21.62-7.36,21.62-16.56,0-9.66-5.75-14.95-20.7-20.47-20.01-7.13-29.44-18.17-29.44-31.51,0-17.94,14.49-32.66,38.41-32.66,11.27,0,21.16,3.22,27.37,6.9l-5.06,14.72c-4.37-2.76-12.42-6.44-22.77-6.44-11.96,0-18.63,6.9-18.63,15.18,0,9.2,6.67,13.34,21.16,18.86,19.32,7.36,29.21,17.02,29.21,33.58,0,19.55-15.18,33.58-41.63,33.58-12.19,0-23.46-3.22-31.28-7.82l5.06-15.41Z"/>
        <path d="m1629.85,126.01c.23,6.9-4.83,12.42-12.88,12.42-7.13,0-12.19-5.52-12.19-12.42s5.29-12.65,12.65-12.65,12.42,5.52,12.42,12.65Zm-22.54,142.6v-111.32h20.24v111.32h-20.24Z"/>
        <path d="m1685.51,130.61v26.68h28.98v15.41h-28.98v60.03c0,13.8,3.91,21.62,15.18,21.62,5.52,0,8.74-.46,11.73-1.38l.92,15.18c-3.91,1.61-10.12,2.99-17.94,2.99-9.43,0-17.02-3.22-21.85-8.74-5.75-5.98-7.82-15.87-7.82-28.98v-60.72h-17.25v-15.41h17.25v-20.47l19.78-6.21Z"/>
        <path d="m1747.15,216.63c.46,27.37,17.94,38.64,38.18,38.64,14.49,0,23.23-2.53,30.82-5.75l3.45,14.49c-7.13,3.22-19.32,7.13-37.03,7.13-34.27,0-54.74-22.77-54.74-56.35s19.78-60.03,52.21-60.03c36.34,0,46,31.97,46,52.44,0,4.14-.46,7.36-.69,9.43h-78.2Zm59.34-14.49c.23-12.88-5.29-32.89-28.06-32.89-20.47,0-29.44,18.86-31.05,32.89h59.11Z"/>
      </g>
    </g>
  </g>
</svg>