<?xml version="1.0" encoding="UTF-8"?>
<svg id="Calque_2" data-name="Calque 2" xmlns="http://www.w3.org/2000/svg" xmlns:xlink="http://www.w3.org/1999/xlink" viewBox="0 0 2115.72 390.12">
  <defs>
    <style>
      .cls-1 {
        fill: url(#_ÂÁ_Ï_ÌÌ_È_ËÂÌÚ_7);
      }
    </style>
    <linearGradient id="_ÂÁ_Ï_ÌÌ_È_ËÂÌÚ_7" data-name="¡ÂÁ˚ÏˇÌÌ˚È „‡‰ËÂÌÚ 7" x1="0" y1="195.06" x2="2115.72" y2="195.06" gradientUnits="userSpaceOnUse">
      <stop offset=".14" stop-color="#fff"/>
      <stop offset=".34" stop-color="#ecedf5"/>
      <stop offset=".56" stop-color="#dee0ed"/>
      <stop offset=".75" stop-color="#d9dceb"/>
      <stop offset=".92" stop-color="#dbe0ef"/>
    </linearGradient>
  </defs>
  <g id="_ÎÓÈ_1" data-name="—ÎÓÈ_1">
    <g>
      <path class="cls-1" d="m2113.57,189.87l-76.52-76.52v-61.57c0-28.6-23.18-51.78-51.78-51.78H51.78C23.18,0,0,23.18,0,51.78v286.56c0,28.6,23.18,51.78,51.78,51.78h1933.48c28.6,0,51.78-23.18,51.78-51.78v-61.57l76.52-76.52c2.87-2.87,2.87-7.51,0-10.38Z"/>
      <g>
        <path d="m250.5,296.98c-20.93-5.52-41.4-11.73-59.34-17.94-3.22-1.15-6.44-2.3-9.43-2.3-36.8-1.38-68.31-28.52-68.31-78.43s30.36-81.65,72.22-81.65,69.46,32.66,69.46,78.43c0,39.79-18.4,65.32-44.16,74.29v.92c15.41,3.91,32.2,7.59,45.31,9.89l-5.75,16.79Zm-66.24-36.57c31.74,0,49.68-28.98,49.68-64.4,0-31.05-16.1-63.02-48.99-63.02s-50.37,31.28-50.14,64.86c-.23,32.89,17.94,62.56,49.22,62.56h.23Z"/>
        <path d="m374.24,243.85c0,11.5.23,21.62.92,30.36h-17.94l-1.15-18.17h-.46c-5.29,8.97-17.02,20.7-36.8,20.7-17.48,0-38.41-9.66-38.41-48.76v-65.09h20.24v61.64c0,21.16,6.44,35.42,24.84,35.42,13.57,0,23-9.43,26.68-18.4,1.15-2.99,1.84-6.67,1.84-10.35v-68.31h20.24v80.96Z"/>
        <path d="m430.36,131.61c.23,6.9-4.83,12.42-12.88,12.42-7.13,0-12.19-5.52-12.19-12.42s5.29-12.65,12.65-12.65,12.42,5.52,12.42,12.65Zm-22.54,142.6v-111.32h20.24v111.32h-20.24Z"/>
        <path d="m486.02,136.21v26.68h28.98v15.41h-28.98v60.03c0,13.8,3.91,21.62,15.18,21.62,5.52,0,8.74-.46,11.73-1.38l.92,15.18c-3.91,1.61-10.12,2.99-17.94,2.99-9.43,0-17.02-3.22-21.85-8.74-5.75-5.98-7.82-15.87-7.82-28.98v-60.72h-17.25v-15.41h17.25v-20.47l19.78-6.21Z"/>
        <path d="m562.15,136.21v26.68h28.98v15.41h-28.98v60.03c0,13.8,3.91,21.62,15.18,21.62,5.52,0,8.74-.46,11.73-1.38l.92,15.18c-3.91,1.61-10.12,2.99-17.94,2.99-9.43,0-17.02-3.22-21.85-8.74-5.75-5.98-7.82-15.87-7.82-28.98v-60.72h-17.25v-15.41h17.25v-20.47l19.78-6.21Z"/>
        <path d="m623.79,222.23c.46,27.37,17.94,38.64,38.18,38.64,14.49,0,23.23-2.53,30.82-5.75l3.45,14.49c-7.13,3.22-19.32,7.13-37.03,7.13-34.27,0-54.74-22.77-54.74-56.35s19.78-60.03,52.21-60.03c36.34,0,46,31.97,46,52.44,0,4.14-.46,7.36-.69,9.43h-78.2Zm59.34-14.49c.23-12.88-5.29-32.89-28.06-32.89-20.47,0-29.44,18.86-31.05,32.89h59.11Z"/>
        <path d="m727.75,197.62c0-13.11-.23-24.38-.92-34.73h17.71l.69,21.85h.92c5.06-14.95,17.25-24.38,30.82-24.38,2.3,0,3.91.23,5.75.69v19.09c-2.07-.46-4.14-.69-6.9-.69-14.26,0-24.38,10.81-27.14,25.99-.46,2.76-.92,5.98-.92,9.43v59.34h-20.01v-76.59Z"/>
        <path d="m851.71,199.23c0-14.26-.46-25.76-.92-36.34h18.17l.92,19.09h.46c8.28-13.57,21.39-21.62,39.56-21.62,26.91,0,47.15,22.77,47.15,56.58,0,40.02-24.38,59.8-50.6,59.8-14.72,0-27.6-6.44-34.27-17.48h-.46v60.49h-20.01v-120.52Zm20.01,29.67c0,2.99.46,5.75.92,8.28,3.68,14.03,15.87,23.69,30.36,23.69,21.39,0,33.81-17.48,33.81-43.01,0-22.31-11.73-41.4-33.12-41.4-13.8,0-26.68,9.89-30.59,25.07-.69,2.53-1.38,5.52-1.38,8.28v19.09Z"/>
        <path d="m982.58,110.92h20.24v163.3h-20.24V110.92Z"/>
        <path d="m1048.13,222.23c.46,27.37,17.94,38.64,38.18,38.64,14.49,0,23.23-2.53,30.82-5.75l3.45,14.49c-7.13,3.22-19.32,7.13-37.03,7.13-34.27,0-54.74-22.77-54.74-56.35s19.78-60.03,52.21-60.03c36.34,0,46,31.97,46,52.44,0,4.14-.46,7.36-.69,9.43h-78.2Zm59.34-14.49c.23-12.88-5.29-32.89-28.06-32.89-20.47,0-29.44,18.86-31.05,32.89h59.11Z"/>
        <path d="m1174.62,131.61c.23,6.9-4.83,12.42-12.88,12.42-7.13,0-12.19-5.52-12.19-12.42s5.29-12.65,12.65-12.65,12.42,5.52,12.42,12.65Zm-22.54,142.6v-111.32h20.24v111.32h-20.24Z"/>
        <path d="m1205.9,193.02c0-11.5-.23-20.93-.92-30.13h17.94l1.15,18.4h.46c5.52-10.58,18.4-20.93,36.8-20.93,15.41,0,39.33,9.2,39.33,47.38v66.47h-20.24v-64.17c0-17.94-6.67-32.89-25.76-32.89-13.34,0-23.69,9.43-27.14,20.7-.92,2.53-1.38,5.98-1.38,9.43v66.93h-20.24v-81.19Z"/>
        <path d="m1393.58,222.23c.46,27.37,17.94,38.64,38.18,38.64,14.49,0,23.23-2.53,30.82-5.75l3.45,14.49c-7.13,3.22-19.32,7.13-37.03,7.13-34.27,0-54.74-22.77-54.74-56.35s19.78-60.03,52.21-60.03c36.34,0,46,31.97,46,52.44,0,4.14-.46,7.36-.69,9.43h-78.2Zm59.34-14.49c.23-12.88-5.29-32.89-28.06-32.89-20.47,0-29.44,18.86-31.05,32.89h59.11Zm4.83-92.92l-28.06,32.89h-14.49l20.24-32.89h22.31Z"/>
        <path d="m1576.89,270.07c-5.29,2.76-17.02,6.67-31.97,6.67-33.58,0-55.43-23-55.43-57.04s23.46-59.11,59.8-59.11c11.96,0,22.54,2.99,28.06,5.75l-4.6,15.64c-4.83-2.76-12.42-5.29-23.46-5.29-25.53,0-39.33,18.86-39.33,42.09,0,25.76,16.56,41.63,38.64,41.63,11.5,0,19.09-2.99,24.84-5.52l3.45,15.18Z"/>
        <path d="m1600.58,197.62c0-13.11-.23-24.38-.92-34.73h17.71l.69,21.85h.92c5.06-14.95,17.25-24.38,30.82-24.38,2.3,0,3.91.23,5.75.69v19.09c-2.07-.46-4.14-.69-6.9-.69-14.26,0-24.38,10.81-27.14,25.99-.46,2.76-.92,5.98-.92,9.43v59.34h-20.01v-76.59Z"/>
        <path d="m1752.84,247.53c0,9.66.46,19.09,1.84,26.68h-18.4l-1.61-14.03h-.69c-6.21,8.74-18.17,16.56-34.04,16.56-22.54,0-34.04-15.87-34.04-31.97,0-26.91,23.92-41.63,66.93-41.4v-2.3c0-9.2-2.53-25.76-25.3-25.76-10.35,0-21.16,3.22-28.98,8.28l-4.6-13.34c9.2-5.98,22.54-9.89,36.57-9.89,34.04,0,42.32,23.23,42.32,45.54v41.63Zm-19.55-30.13c-22.08-.46-47.15,3.45-47.15,25.07,0,13.11,8.74,19.32,19.09,19.32,14.49,0,23.69-9.2,26.91-18.63.69-2.07,1.15-4.37,1.15-6.44v-19.32Z"/>
        <path d="m1785.5,193.02c0-11.5-.23-20.93-.92-30.13h17.94l1.15,18.4h.46c5.52-10.58,18.4-20.93,36.8-20.93,15.41,0,39.33,9.2,39.33,47.38v66.47h-20.24v-64.17c0-17.94-6.67-32.89-25.76-32.89-13.34,0-23.69,9.43-27.14,20.7-.92,2.53-1.38,5.98-1.38,9.43v66.93h-20.24v-81.19Z"/>
      </g>
    </g>
  </g>
</svg>