<?xml version="1.0" encoding="utf-8"?>
<!-- Generator: Adobe Illustrator 27.1.1, SVG Export Plug-In . SVG Version: 6.00 Build 0)  -->
<svg version="1.1" id="Calque_1" xmlns="http://www.w3.org/2000/svg" xmlns:xlink="http://www.w3.org/1999/xlink" x="0px" y="0px"
	 viewBox="0 0 195.8 117.7" style="enable-background:new 0 0 195.8 117.7;" xml:space="preserve">
<style type="text/css">
	.st0{fill:#FFFFFF;}
	.st1{enable-background:new    ;}
</style>
<g id="Groupe_612" transform="translate(-29.506 -41.308)">
	<g id="Groupe_593" transform="translate(-1506.289 -7.424)">
		<g id="Groupe_592" transform="translate(1535.795 48.732)">
			<path id="Tracé_236" class="st0" d="M7.7,100.9c5,0,7.7-2.3,7.7-6.6c0-4.3-2.8-6.9-7.7-6.9C3,87.4,0,90,0,94.3
				S3,100.9,7.7,100.9z M42,84.7c-0.6,0.1-1.1,0.3-1.5,0.7c-1.6,1.2-4.1,2.6-6.4,2.6c-1.8,0-2.5-0.7-2.5-3.5
				c0-7.5,5.2-25.8,5.2-27.2c0-0.5-0.2-0.8-1.1-0.9c-1.8-0.1-5-0.2-8.1-0.2c-2.6,0-5,0.1-6.3,0.2c-0.8,0.1-1.5,0.7-1.6,1.6
				c-1.9,10-2.5,21.9-2.5,32.3c0,3,0.1,5.9,0.2,8.5c0.1,1.4,0.7,1.6,2,1.7c3.2,0.1,7.7,0.2,12.4,0.2c4,0,8.1-0.1,11.5-0.2
				c0.9,0.1,1.8-0.6,1.8-1.5c0-0.1,0-0.1,0-0.2c0-2.9-1.3-11.1-2.2-13.5C42.7,85,42.3,84.7,42,84.7L42,84.7z M64.3,100.4
				c0.8-0.1,1.2-0.3,1.2-1c0-1.2-2.9-9.3-2.9-21.1c0-11.2,3-19.1,3-20.6c0.1-0.7-0.3-1.1-1.1-1.2c-2.2-0.1-4.6-0.2-7-0.2
				c-2.3,0-4.6,0.1-6.8,0.2c-0.8,0-1.5,0.7-1.7,1.5C48.4,60.4,47,68.6,47,81.7c0,7.8,0.6,14.9,1.2,17c0.3,1.2,0.7,1.6,1.6,1.7
				c2.4,0.2,4.9,0.3,7.3,0.3C59.5,100.7,62,100.6,64.3,100.4L64.3,100.4z M92.8,71.1c0.3,0.2,0.6,0.3,0.9,0.3c0.3,0,0.6-0.1,0.8-0.4
				c2.1-2.6,4.5-7.5,4.5-9.6c0-0.6-0.3-1.1-0.7-1.4c-3.4-2.6-8.4-4.3-14.5-4.3c-10.5,0-16.2,6.2-16.2,14c0,8.2,6.1,11.9,13.1,14.3
				c3.9,1.3,4.9,1.9,4.9,3.1c0,1-0.8,1.6-2.7,1.6c-3.7,0-8.6-2.8-11.9-7.2c-0.2-0.3-0.5-0.5-0.9-0.5c-0.3,0-0.5,0.1-0.7,0.3
				c-1.6,1.3-2.7,3.8-2.7,7.6c0,8.2,6.5,12.6,16.2,12.6c11.7,0,17.1-6.7,17.1-14.5c0-7.8-3.9-11.8-13.6-15.3c-3.1-1.1-4.4-2-4.4-3.5
				c0-0.8,0.5-1.5,1.9-1.5C86.3,66.7,89.5,68.3,92.8,71.1L92.8,71.1z M109.3,100.6c2.4,0,4.7-0.1,6.3-0.2c0.9-0.1,1.1-0.4,1.1-1
				c0-1.6-0.4-3.7-0.4-6.4c0-2.6,1.6-3.4,3.5-3.4c1.2,0,1.9,0.6,1.9,2.2c0,3.6-0.9,6.3-0.9,7.4c0,0.8,0.5,1.2,1.3,1.2
				c1.6,0.1,4.1,0.2,6.6,0.2c2,0,4.1-0.1,5.9-0.2c1.1,0.1,2-0.7,2.1-1.8c0-0.1,0-0.1,0-0.2c0.2-2.4,0.3-4.7,0.3-7
				c0-15.9-4.6-29.6-16-35.6c-0.4-0.2-0.8-0.4-1.3-0.4c-0.5,0-1,0.2-1.4,0.4c-12.7,5.7-16.4,22-16.4,36.1c0,2.5,0.1,5,0.3,7.3
				c0.1,1,0.7,1.3,2,1.3C105.9,100.6,107.6,100.6,109.3,100.6L109.3,100.6z M117.1,81c-0.3,0-0.5-0.1-0.5-0.6c0-2.6,0.6-6.6,2.3-9.2
				c0.2-0.4,0.5-0.6,0.7-0.6c0.2,0,0.4,0.2,0.6,0.6c0.9,2.4,1.4,4.8,1.5,7.4c0.1,0.6-0.3,1.2-0.9,1.4c-0.5,0.2-1,0.4-1.6,0.5
				C118.6,80.7,117.9,80.9,117.1,81L117.1,81z M141.9,100.8c2,0,3.1-1,3.1-3c0.1-1.6-1-3-2.6-3.1c-0.2,0-0.4,0-0.6,0
				c-1.6-0.1-3,1-3.1,2.6c0,0.2,0,0.3,0,0.5C138.7,99.8,139.9,100.8,141.9,100.8z M154.4,100.6c2.2,0,4.4-0.1,6.6-0.3
				c0.5,0,0.9-0.4,0.8-0.9c0,0,0,0,0-0.1c0-0.5-0.3-2.8-0.3-4.6c0-2.3,0.1-5.3,0.1-8.2c0-5.1-1.9-7.9-7.4-7.9
				c-4.5,0-7.3,1.8-7.3,4.1c0,0.9,0.3,1.7,0.9,2.4c0.1,0.1,0.3,0.2,0.5,0.2c0.2,0,0.4-0.1,0.5-0.3c1.3-1.3,3.1-2.1,5-2.2
				c2.1,0,2.9,0.9,2.9,2.6c0,0.7-0.4,1-1.4,1.2c-5.1,0.7-8.9,2.8-8.9,7.6C146.6,98.5,149.2,100.6,154.4,100.6L154.4,100.6z
				 M156.9,94.7c0,1-0.3,1.5-1.7,1.5c-2.5,0-3.8-0.7-3.8-2.6c0-2.3,2-3.6,4.7-3.6c0.6,0,0.8,0.3,0.8,1.3L156.9,94.7z M171.1,99.6
				c0-0.7-1.4-6-1.4-11.1c0-3.5,0.7-4.2,1.5-4.2c0.7,0,1.5,0.2,2,0.2c0.3,0,0.6-0.1,0.7-0.7c0.2-0.8,0.2-1.7,0.2-2.5
				c0-2-0.3-2.6-0.9-2.6c-1,0.1-1.9,0.6-2.5,1.3c-0.1,0.1-0.3,0.2-0.5,0.3c-0.2,0-0.4-0.1-0.4-0.6c0-0.4-0.1-0.7-0.5-0.7
				c-0.4-0.1-0.8-0.1-1.2-0.1c-0.7,0-1.4,0-2,0.2c-0.3,0.1-0.5,0.3-0.7,0.9c-0.3,1.1-0.6,3.8-0.6,9.8c-0.1,3.3,0.2,6.6,0.7,9.8
				c0,0.5,0.4,0.9,0.9,0.9c0.7,0,1.4,0,2.1,0c0.6,0,1.2,0,1.8-0.1C170.9,100.4,171.1,100.1,171.1,99.6z M178.6,75
				c-0.7,0.4-0.7,0.6-0.9,2.2c-0.1,1.2-0.2,1.8-0.7,1.8h-0.5c-0.3,0-0.6,0.2-0.7,0.8c-0.1,1.1-0.2,2.2-0.2,3.3
				c0,0.6,0.2,0.7,0.5,0.7c0.1,0,0.3,0,0.5,0.1c0.4,0,0.6,0.2,0.5,0.7c-0.1,1.2-0.4,3.9-0.4,7.1c-0.1,3,0.3,6,1,8.9
				c0.1,0.3,0.5,0.5,0.9,0.5c1.5,0,3-0.4,4.3-1.1c0.2-0.1,0.4-0.3,0.4-0.6c0-0.1,0-0.3-0.1-0.4c-0.9-3.7-1.4-7.6-1.5-11.4
				c0-1.1,0.1-2.1,0.1-2.9s0.2-1.1,0.7-1.1c0.8,0,1.5,0.2,2.1,0.2c0.3,0,0.5-0.2,0.5-0.4c0.1-0.7,0.2-1.4,0.2-2.1
				c0-0.6,0-1.1-0.1-1.7c-0.1-0.4-0.2-0.6-0.6-0.6c-0.6,0-1.6,0.1-2.1,0.1c-0.4,0-0.6-0.1-0.6-0.5c0-1.6,1.2-3.7,1.2-4.3
				c0-0.2-0.2-0.4-0.4-0.5c0,0,0,0-0.1,0C181.4,74,179.9,74.4,178.6,75z"/>
			<path id="Tracé_237" class="st0" d="M37.8,48.1c0-1.7-3.5-10-3.5-18.2c-0.1-2.7,0.2-5.3,0.6-7.9c0-0.2,0.3-0.4,0.5-0.4
				c0.3,0,0.6,0.3,0.6,0.6c1.1,4,3.3,11.3,5.9,16.4c0.2,0.6,0.8,1,1.4,1.1c0.7,0,1.2-0.4,1.4-1.1c2.4-5.4,4.5-10.9,6.3-16.6
				c0-0.2,0.3-0.4,0.5-0.4c0.3,0,0.5,0.2,0.5,0.4c0.5,2.2,0.7,4.4,0.6,6.6c0,9.5-3.5,16.8-3.5,19.4c0,0.6,0.2,0.9,1.1,1.1
				c1.8,0.2,4.4,0.3,7.3,0.3c3.8,0,7.6-0.1,9.6-0.3c0.8-0.1,1.5-0.7,1.5-1.6c1-6.7,1.5-13.5,1.5-20.3c0.1-8.2-0.9-16.3-2.9-24.3
				c-0.3-0.9-1.2-1.5-2.1-1.5c-2.2-0.2-4.4-0.3-6.7-0.3c-2.4,0-4.7,0.1-6.8,0.3c-1,0.2-1.8,0.8-2.3,1.7c-1.8,3.9-3.4,7.9-4.6,12.1
				c-0.1,0.4-0.3,0.6-0.6,0.6s-0.6-0.2-0.7-0.7c-1.2-4.2-2.8-8.3-4.6-12.3c-0.5-1-1.5-1.6-2.6-1.5c-1.7-0.1-4.1-0.2-6.6-0.2
				c-3.1,0-6.3,0.1-8.1,0.2c-0.8,0-1.4,0.6-1.4,1.4c0,0,0,0,0,0c-1.2,8.3-1.9,16.6-1.9,25C18.2,34.4,18.8,41.2,20,48
				c0.1,0.6,0.6,1,1.2,1.1c2.5,0.1,5.4,0.2,8.1,0.2c2.8,0,5.4-0.1,7.3-0.2C37.4,49,37.8,48.7,37.8,48.1z M111.3,31.5
				c0-16.5-6.6-31.4-19.2-31.4S72.9,15,72.9,31.5c0,10.1,4.6,18.4,19.3,18.4C106.8,50,111.3,41.6,111.3,31.5z M92.1,34.6
				c-2.2,0-3.4-1.8-3.4-6.3c0-9.1,1.3-13.9,3.4-13.9c1.9,0,3.4,4.8,3.4,13.9C95.6,32.8,94.3,34.6,92.1,34.6z M123.8,49.2
				c2.6,0,5.3-0.1,7-0.2c0.7-0.1,1.1-0.3,1.1-1.3c0-0.8-2.6-12-2.6-17.5c0-0.8,0.2-1.6,0.8-1.6c0.4,0,0.7,0.2,1.1,0.8
				c3.5,5.4,5.9,11.4,6.9,17.8c0.2,1.4,0.7,1.6,2.1,1.8c1.5,0.1,3,0.2,4.4,0.2c2.7,0,5.7-0.1,7.4-0.2c1,0.1,1.9-0.7,2-1.8
				c0,0,0,0,0,0c0.6-5.6,0.9-11.2,0.8-16.9c0-10.1-0.6-21-1.8-27.7c-0.1-0.8-0.8-1.5-1.6-1.4C150,1.1,148,1,145.9,1
				c-2.6,0-5.1,0.1-6.9,0.2c-0.7,0-1.2,0.6-1.2,1.2c0,0,0,0,0,0.1c0,2,3.6,10.3,3.6,19.6c0,0.6-0.3,0.9-0.7,0.9
				c-0.2,0-0.4-0.1-0.6-0.5c-5.8-12.3-8.6-17.8-10.3-20.3c-0.3-0.6-0.9-1-1.6-1.1c-1.3-0.1-3.1-0.1-4.9-0.1s-3.7,0.1-5.3,0.1
				c-0.8,0.1-1.5,0.7-1.8,1.5c-1.1,3.1-1.9,13-1.9,23.9c-0.1,7.1,0.4,14.1,1.3,21.1c0.1,0.9,0.7,1.3,1.6,1.3
				C119,49.2,121.4,49.2,123.8,49.2L123.8,49.2z M165.7,49.1c2.6,0,5.1-0.1,6.8-0.2c0.9-0.1,1.2-0.4,1.2-1.1c0-1.7-0.4-4-0.4-7
				c0-2.9,1.7-3.7,3.8-3.7c1.3,0,2.1,0.7,2.1,2.4c0,3.9-1,6.8-1,8.1c0,0.9,0.6,1.3,1.4,1.3c1.8,0.1,4.4,0.2,7.2,0.2
				c2.2,0,4.4-0.1,6.4-0.2c1.2,0.1,2.2-0.8,2.2-2c0-0.1,0-0.1,0-0.2c0.2-2.6,0.3-5.1,0.3-7.6c0-17.3-5-32.1-17.3-38.7
				C178,0.2,177.6,0,177.1,0c-0.5,0.1-1.1,0.2-1.6,0.4c-13.8,6.2-17.8,23.9-17.8,39.2c0,2.8,0.1,5.4,0.4,7.9
				c0.1,1.1,0.8,1.4,2.1,1.4C162,49.1,163.8,49.1,165.7,49.1L165.7,49.1z M174.2,27.8c-0.3,0-0.6-0.1-0.6-0.7c0-2.8,0.7-7.2,2.5-10
				c0.2-0.4,0.5-0.6,0.8-0.6c0.2,0,0.4,0.2,0.6,0.6c1,2.6,1.5,5.3,1.6,8c0.1,0.7-0.3,1.3-0.9,1.6c-0.6,0.2-1.1,0.4-1.7,0.6
				C175.8,27.5,175,27.7,174.2,27.8L174.2,27.8z"/>
		</g>
	</g>
	<g class="st1">
		<path class="st0" d="M44.5,152.7c0-0.2-0.1-0.3-0.2-0.5s-0.2-0.3-0.3-0.4c-0.1-0.1-0.3-0.2-0.5-0.3c-0.2-0.1-0.4-0.1-0.6-0.1
			c-0.3,0-0.6,0.1-0.9,0.2s-0.4,0.3-0.6,0.5c-0.2,0.2-0.3,0.5-0.3,0.8s-0.1,0.6-0.1,0.9s0,0.6,0.1,0.9c0.1,0.3,0.2,0.5,0.3,0.8
			c0.2,0.2,0.4,0.4,0.6,0.5s0.5,0.2,0.9,0.2c0.2,0,0.5,0,0.7-0.1c0.2-0.1,0.3-0.2,0.5-0.4c0.1-0.2,0.2-0.3,0.3-0.5s0.1-0.4,0.2-0.6
			h1.1c0,0.4-0.1,0.7-0.2,1s-0.3,0.6-0.6,0.8c-0.2,0.2-0.5,0.4-0.8,0.5c-0.3,0.1-0.7,0.2-1,0.2c-0.5,0-0.9-0.1-1.3-0.3
			c-0.4-0.2-0.7-0.4-0.9-0.7c-0.3-0.3-0.5-0.6-0.6-1c-0.1-0.4-0.2-0.8-0.2-1.3c0-0.4,0.1-0.9,0.2-1.3c0.1-0.4,0.3-0.7,0.6-1
			c0.3-0.3,0.6-0.5,0.9-0.7c0.4-0.2,0.8-0.3,1.3-0.3c0.4,0,0.7,0,1,0.1c0.3,0.1,0.6,0.2,0.8,0.4c0.2,0.2,0.4,0.4,0.6,0.7
			c0.1,0.3,0.2,0.6,0.3,0.9H44.5z"/>
		<path class="st0" d="M50,150.6c0.5,0,0.9,0.1,1.3,0.3c0.4,0.2,0.7,0.4,0.9,0.7c0.3,0.3,0.5,0.6,0.6,1c0.1,0.4,0.2,0.8,0.2,1.3
			c0,0.5-0.1,0.9-0.2,1.3c-0.1,0.4-0.3,0.7-0.6,1c-0.3,0.3-0.6,0.5-0.9,0.7c-0.4,0.2-0.8,0.3-1.3,0.3c-0.5,0-0.9-0.1-1.3-0.3
			c-0.4-0.2-0.7-0.4-0.9-0.7c-0.3-0.3-0.5-0.6-0.6-1c-0.1-0.4-0.2-0.8-0.2-1.3c0-0.4,0.1-0.9,0.2-1.3c0.1-0.4,0.3-0.7,0.6-1
			c0.3-0.3,0.6-0.5,0.9-0.7C49.1,150.7,49.6,150.6,50,150.6z M50,151.5c-0.3,0-0.6,0.1-0.9,0.2s-0.4,0.3-0.6,0.5
			c-0.2,0.2-0.3,0.5-0.3,0.8s-0.1,0.6-0.1,0.9s0,0.6,0.1,0.9c0.1,0.3,0.2,0.5,0.3,0.8c0.2,0.2,0.4,0.4,0.6,0.5s0.5,0.2,0.9,0.2
			c0.3,0,0.6-0.1,0.9-0.2s0.4-0.3,0.6-0.5c0.2-0.2,0.3-0.5,0.3-0.8c0.1-0.3,0.1-0.6,0.1-0.9s0-0.6-0.1-0.9s-0.2-0.5-0.3-0.8
			c-0.2-0.2-0.4-0.4-0.6-0.5S50.4,151.5,50,151.5z"/>
		<path class="st0" d="M54.8,150.7h1.1v5.3H59v0.9h-4.3V150.7z"/>
		<path class="st0" d="M60.5,150.7h1.1v5.3h3.2v0.9h-4.3V150.7z"/>
		<path class="st0" d="M66.3,150.7h4.5v1h-3.4v1.6h3.2v0.9h-3.2v1.8h3.5v0.9h-4.6V150.7z"/>
		<path class="st0" d="M76.8,152.7c0-0.2-0.1-0.3-0.2-0.5s-0.2-0.3-0.3-0.4c-0.1-0.1-0.3-0.2-0.5-0.3c-0.2-0.1-0.4-0.1-0.6-0.1
			c-0.3,0-0.6,0.1-0.9,0.2c-0.2,0.1-0.4,0.3-0.6,0.5s-0.3,0.5-0.3,0.8s-0.1,0.6-0.1,0.9s0,0.6,0.1,0.9c0.1,0.3,0.2,0.5,0.3,0.8
			c0.2,0.2,0.4,0.4,0.6,0.5c0.2,0.1,0.5,0.2,0.9,0.2c0.2,0,0.5,0,0.7-0.1s0.3-0.2,0.5-0.4c0.1-0.2,0.2-0.3,0.3-0.5s0.1-0.4,0.1-0.6
			h1.1c0,0.4-0.1,0.7-0.2,1c-0.1,0.3-0.3,0.6-0.6,0.8c-0.2,0.2-0.5,0.4-0.8,0.5c-0.3,0.1-0.7,0.2-1,0.2c-0.5,0-0.9-0.1-1.3-0.3
			c-0.4-0.2-0.7-0.4-0.9-0.7s-0.5-0.6-0.6-1s-0.2-0.8-0.2-1.3c0-0.4,0.1-0.9,0.2-1.3s0.3-0.7,0.6-1s0.6-0.5,0.9-0.7
			c0.4-0.2,0.8-0.3,1.3-0.3c0.4,0,0.7,0,1,0.1c0.3,0.1,0.6,0.2,0.8,0.4c0.2,0.2,0.4,0.4,0.6,0.7s0.2,0.6,0.3,0.9H76.8z"/>
		<path class="st0" d="M79,150.7h5.1v1h-2v5.3H81v-5.3h-2V150.7z"/>
		<path class="st0" d="M85.5,150.7h1.1v6.3h-1.1V150.7z"/>
		<path class="st0" d="M91.3,150.6c0.5,0,0.9,0.1,1.3,0.3c0.4,0.2,0.7,0.4,0.9,0.7c0.3,0.3,0.5,0.6,0.6,1s0.2,0.8,0.2,1.3
			c0,0.5-0.1,0.9-0.2,1.3s-0.3,0.7-0.6,1c-0.3,0.3-0.6,0.5-0.9,0.7c-0.4,0.2-0.8,0.3-1.3,0.3s-0.9-0.1-1.3-0.3
			c-0.4-0.2-0.7-0.4-0.9-0.7s-0.5-0.6-0.6-1s-0.2-0.8-0.2-1.3c0-0.4,0.1-0.9,0.2-1.3s0.3-0.7,0.6-1s0.6-0.5,0.9-0.7
			C90.4,150.7,90.8,150.6,91.3,150.6z M91.3,151.5c-0.3,0-0.6,0.1-0.9,0.2c-0.2,0.1-0.4,0.3-0.6,0.5s-0.3,0.5-0.3,0.8
			s-0.1,0.6-0.1,0.9s0,0.6,0.1,0.9c0.1,0.3,0.2,0.5,0.3,0.8c0.2,0.2,0.4,0.4,0.6,0.5c0.2,0.1,0.5,0.2,0.9,0.2s0.6-0.1,0.9-0.2
			c0.2-0.1,0.4-0.3,0.6-0.5c0.2-0.2,0.3-0.5,0.3-0.8c0.1-0.3,0.1-0.6,0.1-0.9s0-0.6-0.1-0.9s-0.2-0.5-0.3-0.8s-0.4-0.4-0.6-0.5
			C91.9,151.5,91.7,151.5,91.3,151.5z"/>
		<path class="st0" d="M96,150.7h1.2l2.9,4.6h0v-4.6h1v6.3h-1.2l-2.9-4.6h0v4.6h-1V150.7z"/>
		<path class="st0" d="M106.2,150.7h2.8c0.4,0,0.8,0.1,1.1,0.2s0.5,0.3,0.7,0.5s0.3,0.4,0.3,0.6c0.1,0.2,0.1,0.4,0.1,0.6
			s0,0.4-0.1,0.6c-0.1,0.2-0.2,0.4-0.3,0.6s-0.4,0.4-0.7,0.5c-0.3,0.1-0.6,0.2-1.1,0.2h-1.7v2.4h-1.1V150.7z M107.3,153.7h1.6
			c0.1,0,0.2,0,0.4-0.1s0.2-0.1,0.4-0.2c0.1-0.1,0.2-0.2,0.3-0.3s0.1-0.3,0.1-0.5c0-0.2,0-0.4-0.1-0.5s-0.1-0.2-0.2-0.3
			c-0.1-0.1-0.2-0.1-0.3-0.2s-0.3,0-0.4,0h-1.6V153.7z"/>
		<path class="st0" d="M112.8,150.7h3c0.7,0,1.2,0.2,1.6,0.4c0.3,0.3,0.5,0.7,0.5,1.2c0,0.3,0,0.5-0.1,0.7c-0.1,0.2-0.2,0.4-0.3,0.5
			c-0.1,0.1-0.2,0.2-0.3,0.3s-0.2,0.1-0.3,0.1v0c0.1,0,0.2,0,0.3,0.1s0.2,0.1,0.3,0.2c0.1,0.1,0.2,0.2,0.2,0.4s0.1,0.4,0.1,0.6
			c0,0.4,0,0.7,0.1,1s0.1,0.5,0.3,0.6H117c-0.1-0.1-0.1-0.3-0.1-0.4c0-0.2,0-0.3,0-0.5c0-0.3,0-0.5-0.1-0.7c0-0.2-0.1-0.4-0.2-0.5
			c-0.1-0.1-0.2-0.2-0.4-0.3s-0.4-0.1-0.6-0.1h-1.6v2.6h-1.1V150.7z M113.9,153.6h1.8c0.4,0,0.6-0.1,0.8-0.3
			c0.2-0.2,0.3-0.4,0.3-0.8c0-0.2,0-0.4-0.1-0.5c-0.1-0.1-0.1-0.2-0.2-0.3s-0.2-0.1-0.4-0.1s-0.3,0-0.4,0h-1.8V153.6z"/>
		<path class="st0" d="M119.7,150.7h1.1v6.3h-1.1V150.7z"/>
		<path class="st0" d="M122.2,150.7h1.1l1.6,5h0l1.6-5h1.1l-2.1,6.3h-1.2L122.2,150.7z"/>
		<path class="st0" d="M128.9,150.7h4.5v1H130v1.6h3.2v0.9H130v1.8h3.5v0.9h-4.6V150.7z M131.5,148.9h1.2l-1.2,1.3h-0.7L131.5,148.9
			z"/>
		<path class="st0" d="M135.2,150.7h4.5v1h-3.4v1.6h3.2v0.9h-3.2v1.8h3.5v0.9h-4.6V150.7z"/>
		<path class="st0" d="M144.6,150.7h2.6c0.5,0,0.9,0.1,1.2,0.2c0.4,0.2,0.6,0.4,0.9,0.7c0.2,0.3,0.4,0.6,0.5,1
			c0.1,0.4,0.2,0.8,0.2,1.2c0,0.4-0.1,0.8-0.2,1.2s-0.3,0.7-0.5,1c-0.2,0.3-0.5,0.5-0.9,0.7c-0.4,0.2-0.8,0.2-1.2,0.2h-2.6V150.7z
			 M145.7,156.1h1.1c0.4,0,0.8-0.1,1.1-0.2c0.3-0.1,0.5-0.3,0.6-0.5c0.2-0.2,0.3-0.4,0.3-0.7c0.1-0.3,0.1-0.6,0.1-0.9s0-0.6-0.1-0.9
			s-0.2-0.5-0.3-0.7s-0.4-0.4-0.6-0.5c-0.3-0.1-0.6-0.2-1.1-0.2h-1.1V156.1z"/>
		<path class="st0" d="M151.6,150.7h4.5v1h-3.4v1.6h3.2v0.9h-3.2v1.8h3.5v0.9h-4.6V150.7z"/>
		<path class="st0" d="M161,150.7h1.5l1.7,4.9h0l1.7-4.9h1.5v6.3h-1v-4.8h0l-1.7,4.8h-0.9l-1.7-4.8h0v4.8h-1V150.7z"/>
		<path class="st0" d="M169.5,155.8h1.2v1.2h-1.2V155.8z"/>
		<path class="st0" d="M176.6,154.9c0,0.2,0,0.4,0.1,0.6s0.2,0.3,0.3,0.4c0.1,0.1,0.3,0.2,0.5,0.2c0.2,0.1,0.4,0.1,0.6,0.1
			c0.2,0,0.4,0,0.6-0.1c0.2-0.1,0.3-0.1,0.4-0.2s0.2-0.2,0.2-0.3c0-0.1,0.1-0.2,0.1-0.3c0-0.2-0.1-0.4-0.2-0.5
			c-0.1-0.1-0.2-0.2-0.4-0.2c-0.2-0.1-0.5-0.2-0.8-0.2c-0.3-0.1-0.7-0.2-1.1-0.3c-0.3-0.1-0.5-0.2-0.7-0.3c-0.2-0.1-0.3-0.2-0.4-0.4
			c-0.1-0.1-0.2-0.3-0.2-0.4c0-0.2-0.1-0.3-0.1-0.5c0-0.3,0.1-0.6,0.2-0.8c0.1-0.2,0.3-0.4,0.5-0.6c0.2-0.2,0.5-0.3,0.7-0.3
			c0.3-0.1,0.6-0.1,0.8-0.1c0.3,0,0.6,0,0.9,0.1c0.3,0.1,0.5,0.2,0.8,0.4c0.2,0.2,0.4,0.4,0.5,0.6c0.1,0.2,0.2,0.5,0.2,0.9h-1.1
			c0-0.4-0.2-0.7-0.4-0.9c-0.2-0.2-0.6-0.3-0.9-0.3c-0.1,0-0.3,0-0.4,0c-0.1,0-0.3,0.1-0.4,0.1c-0.1,0.1-0.2,0.1-0.3,0.2
			c-0.1,0.1-0.1,0.2-0.1,0.4c0,0.2,0.1,0.4,0.2,0.5c0.1,0.1,0.3,0.2,0.5,0.3c0,0,0.1,0,0.3,0.1c0.2,0,0.3,0.1,0.5,0.1
			s0.4,0.1,0.6,0.2c0.2,0.1,0.3,0.1,0.4,0.1c0.2,0.1,0.4,0.2,0.5,0.3s0.3,0.2,0.4,0.4c0.1,0.1,0.2,0.3,0.2,0.5
			c0,0.2,0.1,0.3,0.1,0.5c0,0.4-0.1,0.7-0.2,0.9c-0.1,0.2-0.3,0.5-0.6,0.6c-0.2,0.2-0.5,0.3-0.8,0.3c-0.3,0.1-0.6,0.1-0.9,0.1
			c-0.4,0-0.7,0-1-0.1c-0.3-0.1-0.6-0.2-0.8-0.4c-0.2-0.2-0.4-0.4-0.6-0.7s-0.2-0.6-0.2-1H176.6z"/>
		<path class="st0" d="M181.7,150.7h5.1v1h-2v5.3h-1.1v-5.3h-2V150.7z"/>
		<path class="st0" d="M188.2,150.7h3c0.7,0,1.2,0.2,1.6,0.4c0.3,0.3,0.5,0.7,0.5,1.2c0,0.3,0,0.5-0.1,0.7c-0.1,0.2-0.2,0.4-0.3,0.5
			c-0.1,0.1-0.2,0.2-0.3,0.3c-0.1,0.1-0.2,0.1-0.3,0.1v0c0.1,0,0.2,0,0.3,0.1c0.1,0,0.2,0.1,0.3,0.2c0.1,0.1,0.2,0.2,0.2,0.4
			s0.1,0.4,0.1,0.6c0,0.4,0,0.7,0.1,1c0.1,0.3,0.1,0.5,0.3,0.6h-1.2c-0.1-0.1-0.1-0.3-0.1-0.4c0-0.2,0-0.3,0-0.5
			c0-0.3,0-0.5-0.1-0.7c0-0.2-0.1-0.4-0.2-0.5c-0.1-0.1-0.2-0.2-0.4-0.3c-0.2-0.1-0.4-0.1-0.6-0.1h-1.6v2.6h-1.1V150.7z
			 M189.3,153.6h1.8c0.4,0,0.6-0.1,0.8-0.3c0.2-0.2,0.3-0.4,0.3-0.8c0-0.2,0-0.4-0.1-0.5c-0.1-0.1-0.1-0.2-0.2-0.3s-0.2-0.1-0.4-0.1
			s-0.3,0-0.4,0h-1.8V153.6z"/>
		<path class="st0" d="M195.1,150.7h4.5v1h-3.4v1.6h3.2v0.9h-3.2v1.8h3.5v0.9h-4.6V150.7z M197.7,148.9h1.2l-1.2,1.3h-0.7
			L197.7,148.9z"/>
		<path class="st0" d="M201.3,150.7h1.1v2.5h2.9v-2.5h1.1v6.3h-1.1v-2.8h-2.9v2.8h-1.1V150.7z"/>
		<path class="st0" d="M211.1,150.6c0.5,0,0.9,0.1,1.3,0.3c0.4,0.2,0.7,0.4,0.9,0.7c0.3,0.3,0.5,0.6,0.6,1s0.2,0.8,0.2,1.3
			c0,0.5-0.1,0.9-0.2,1.3s-0.3,0.7-0.6,1c-0.3,0.3-0.6,0.5-0.9,0.7c-0.4,0.2-0.8,0.3-1.3,0.3s-0.9-0.1-1.3-0.3
			c-0.4-0.2-0.7-0.4-0.9-0.7s-0.5-0.6-0.6-1s-0.2-0.8-0.2-1.3c0-0.4,0.1-0.9,0.2-1.3s0.3-0.7,0.6-1s0.6-0.5,0.9-0.7
			C210.2,150.7,210.6,150.6,211.1,150.6z M211.1,151.5c-0.3,0-0.6,0.1-0.9,0.2c-0.2,0.1-0.4,0.3-0.6,0.5s-0.3,0.5-0.3,0.8
			s-0.1,0.6-0.1,0.9s0,0.6,0.1,0.9c0.1,0.3,0.2,0.5,0.3,0.8c0.2,0.2,0.4,0.4,0.6,0.5c0.2,0.1,0.5,0.2,0.9,0.2s0.6-0.1,0.9-0.2
			c0.2-0.1,0.4-0.3,0.6-0.5c0.2-0.2,0.3-0.5,0.3-0.8c0.1-0.3,0.1-0.6,0.1-0.9s0-0.6-0.1-0.9s-0.2-0.5-0.3-0.8s-0.4-0.4-0.6-0.5
			C211.7,151.5,211.4,151.5,211.1,151.5z"/>
	</g>
</g>
</svg>
